<?xml version="1.0" encoding="UTF-8" standalone="no"?>
<!-- Generator: Adobe Illustrator 27.5.0, SVG Export Plug-In . SVG Version: 6.00 Build 0)  -->

<svg
   version="1.1"
   x="0px"
   y="0px"
   viewBox="0 0 1573.2837 487.09081"
   xml:space="preserve"
   id="svg124"
   sodipodi:docname="yapayzeka-veri2.svg"
   width="1573.2837"
   height="487.09082"
   inkscape:version="1.2.2 (b0a8486541, 2022-12-01)"
   xmlns:inkscape="http://www.inkscape.org/namespaces/inkscape"
   xmlns:sodipodi="http://sodipodi.sourceforge.net/DTD/sodipodi-0.dtd"
   xmlns="http://www.w3.org/2000/svg"
   xmlns:svg="http://www.w3.org/2000/svg"><defs
   id="defs128" /><sodipodi:namedview
   id="namedview126"
   pagecolor="#ffffff"
   bordercolor="#000000"
   borderopacity="0.25"
   inkscape:showpageshadow="2"
   inkscape:pageopacity="0.0"
   inkscape:pagecheckerboard="0"
   inkscape:deskcolor="#d1d1d1"
   showgrid="false"
   inkscape:zoom="0.71417785"
   inkscape:cx="595.78997"
   inkscape:cy="323.44884"
   inkscape:window-width="1366"
   inkscape:window-height="667"
   inkscape:window-x="0"
   inkscape:window-y="0"
   inkscape:window-maximized="1"
   inkscape:current-layer="svg124" />


<text
   xml:space="preserve"
   style="font-weight:normal;font-size:26.66666667px;font-family:'DejaVu Sans';-inkscape-font-specification:'DejaVu Sans, Normal';text-align:center;text-anchor:middle;fill:#000000;stroke-width:2.8;paint-order:markers fill stroke;font-style:normal;font-stretch:normal;font-variant:normal;font-variant-ligatures:normal;font-variant-caps:normal;font-variant-numeric:normal;font-variant-east-asian:normal"
   x="201.82623"
   y="88.053337"
   id="text1039"><tspan
     sodipodi:role="line"
     id="tspan1037"
     x="201.82623"
     y="88.053337" /></text><text
   xml:space="preserve"
   style="font-style:normal;font-variant:normal;font-weight:normal;font-stretch:normal;font-size:26.6667px;font-family:'DejaVu Sans';-inkscape-font-specification:'DejaVu Sans, Normal';font-variant-ligatures:normal;font-variant-caps:normal;font-variant-numeric:normal;font-variant-east-asian:normal;text-align:center;text-anchor:middle;fill:#000000;stroke-width:2.8;paint-order:markers fill stroke"
   x="162.18306"
   y="103.35561"
   id="text1095"><tspan
     sodipodi:role="line"
     id="tspan1093"
     x="162.18306"
     y="103.35561"
     style="font-style:normal;font-variant:normal;font-weight:normal;font-stretch:normal;font-size:26.6667px;font-family:'DejaVu Sans';-inkscape-font-specification:'DejaVu Sans, Normal';font-variant-ligatures:normal;font-variant-caps:normal;font-variant-numeric:normal;font-variant-east-asian:normal">Köpek</tspan></text><text
   xml:space="preserve"
   style="font-style:normal;font-variant:normal;font-weight:normal;font-stretch:normal;font-size:26.6667px;font-family:'DejaVu Sans';-inkscape-font-specification:'DejaVu Sans, Normal';font-variant-ligatures:normal;font-variant-caps:normal;font-variant-numeric:normal;font-variant-east-asian:normal;text-align:center;text-anchor:middle;fill:#000000;stroke-width:2.8;paint-order:markers fill stroke"
   x="171.61337"
   y="191.73518"
   id="text1149"><tspan
     sodipodi:role="line"
     id="tspan1147"
     x="171.61337"
     y="191.73518"
     style="font-style:normal;font-variant:normal;font-weight:normal;font-stretch:normal;font-size:26.6667px;font-family:'DejaVu Sans';-inkscape-font-specification:'DejaVu Sans, Normal';font-variant-ligatures:normal;font-variant-caps:normal;font-variant-numeric:normal;font-variant-east-asian:normal">Kedi</tspan></text><rect
   style="fill:#ff0000;stroke-width:2.34709;paint-order:markers fill stroke"
   id="rect1203"
   width="3.6620944"
   height="450"
   x="280.37244"
   y="37.090828" /><rect
   style="fill:#ff0000;stroke-width:2.34709;paint-order:markers fill stroke"
   id="rect1203-2"
   width="3.6620944"
   height="450"
   x="722.39032"
   y="37.090828" /><rect
   style="fill:#ff0000;stroke-width:2.34709;paint-order:markers fill stroke"
   id="rect1203-28"
   width="3.6620944"
   height="450"
   x="1052.2283"
   y="37.090828" /><text
   xml:space="preserve"
   style="font-weight:normal;font-size:26.66666667px;font-family:'DejaVu Sans';-inkscape-font-specification:'DejaVu Sans, Normal';text-align:center;text-anchor:middle;fill:#0000ff;stroke-width:2.8;paint-order:markers fill stroke;font-style:normal;font-stretch:normal;font-variant:normal;font-variant-ligatures:normal;font-variant-caps:normal;font-variant-numeric:normal;font-variant-east-asian:normal"
   x="495.56113"
   y="364.28384"
   id="text1515"><tspan
     sodipodi:role="line"
     id="tspan1513"
     x="495.56113"
     y="364.28384">Nesnelere Ait Örnek Resimler</tspan></text><text
   xml:space="preserve"
   style="font-style:normal;font-variant:normal;font-weight:normal;font-stretch:normal;font-size:26.6667px;font-family:'DejaVu Sans';-inkscape-font-specification:'DejaVu Sans, Normal';font-variant-ligatures:normal;font-variant-caps:normal;font-variant-numeric:normal;font-variant-east-asian:normal;text-align:center;text-anchor:middle;fill:#0000ff;stroke-width:2.8;paint-order:markers fill stroke"
   x="891.61725"
   y="346.51221"
   id="text1515-2"><tspan
     sodipodi:role="line"
     id="tspan1513-9"
     x="891.61725"
     y="346.51221">Örnek Resimlerden </tspan><tspan
     sodipodi:role="line"
     x="891.61725"
     y="379.84558"
     id="tspan1729">Nesneleri Anlayacağı</tspan><tspan
     sodipodi:role="line"
     x="891.61725"
     y="413.17896"
     id="tspan1727">Veri Kümesi Oluşturma</tspan></text><text
   xml:space="preserve"
   style="font-style:normal;font-variant:normal;font-weight:normal;font-stretch:normal;font-size:26.6667px;font-family:'DejaVu Sans';-inkscape-font-specification:'DejaVu Sans, Normal';font-variant-ligatures:normal;font-variant-caps:normal;font-variant-numeric:normal;font-variant-east-asian:normal;text-align:center;text-anchor:middle;fill:#0000ff;stroke-width:2.8;paint-order:markers fill stroke"
   x="1155.4154"
   y="351.60745"
   id="text1515-2-3"><tspan
     sodipodi:role="line"
     x="1155.4154"
     y="351.60745"
     id="tspan1727-9">Köpek </tspan><tspan
     sodipodi:role="line"
     x="1155.4154"
     y="384.94083"
     id="tspan2273">Gösteriliyor</tspan></text><g
   id="g1792"
   transform="matrix(2.4852531,0,0,1.7676126,836.05121,75.275056)"
   style="fill:#ff6600">
	<path
   d="m 50.1,39.201 c 0,-3.859 -3.14,-7 -7,-7 -3.86,0 -7,3.141 -7,7 v 1 h -4 v 18 h 22 v -18 h -4 z m -12,0 c 0,-2.757 2.243,-5 5,-5 2.757,0 5,2.243 5,5 v 1 h -10 z m 14,3 v 14 h -18 v -14 h 2 14 z"
   id="path1780"
   style="fill:#ff6600" />
	<path
   d="m 42.1,53.059 v 1.142 c 0,0.553 0.448,1 1,1 0.552,0 1,-0.447 1,-1 v -1.142 c 1.72,-0.447 3,-1.999 3,-3.858 0,-2.206 -1.794,-4 -4,-4 -2.206,0 -4,1.794 -4,4 0,1.859 1.28,3.41 3,3.858 z m 1,-5.858 c 1.103,0 2,0.897 2,2 0,1.103 -0.897,2 -2,2 -1.103,0 -2,-0.897 -2,-2 0,-1.103 0.897,-2 2,-2 z"
   id="path1782"
   style="fill:#ff6600" />
	<path
   d="m 35.356,32.885 c -1.177,0.083 -2.383,0.15 -3.649,0.185 -0.87,0.027 -1.74,0.041 -2.606,0.041 -0.869,0 -1.742,-0.014 -2.614,-0.042 C 19.146,32.868 13.296,31.831 9.084,30.352 7.104,29.685 5.409,28.899 4.1,28 v 7.111 0.5 0.5 1.289 c 2.846,2.971 12.394,5.711 25,5.711 v -5.91 h 4.202 c 0.329,-1.614 1.049,-3.086 2.054,-4.316 z"
   id="path1784"
   style="fill:#ff6600" />
	<path
   d="M 4.1,14.889 V 22 22.5 23 24.289 c 2.638,2.754 11.033,5.31 22.286,5.668 0.115,0.003 0.233,0.005 0.349,0.008 0.326,0.009 0.651,0.018 0.982,0.023 0.457,0.008 0.918,0.012 1.383,0.012 0.465,0 0.926,-0.004 1.383,-0.011 0.33,-0.005 0.656,-0.015 0.982,-0.023 0.116,-0.003 0.234,-0.005 0.349,-0.008 C 43.067,29.599 51.462,27.043 54.1,24.29 V 23 22.5 22 14.889 C 49.233,18.232 38.944,20 29.1,20 19.256,20 8.968,18.232 4.1,14.889 Z"
   id="path1786"
   style="fill:#ff6600" />
	<path
   d="M 53.965,8.542 C 52.843,4.241 44.215,0 29.1,0 14.023,0 5.404,4.22 4.247,8.51 4.162,8.657 4.1,8.818 4.1,9 v 0.5 1.806 C 6.937,14.267 16.417,17 29.1,17 c 12.683,0 22.164,-2.733 25,-5.694 V 9.5 9 c 0,-0.168 -0.056,-0.319 -0.135,-0.458 z"
   id="path1788"
   style="fill:#ff6600" />
	<path
   d="m 4.1,49.201 c 0,0.162 0.043,0.315 0.117,0.451 1.181,4.895 11.747,8.549 24.883,8.549 v -12 C 16.754,46.201 8.234,43.911 4.1,41 Z"
   id="path1790"
   style="fill:#ff6600" />
</g><rect
   style="fill:#241c1c;stroke-width:3.08142;paint-order:markers fill stroke"
   id="rect2053"
   width="143.67456"
   height="4.596674"
   x="690.02625"
   y="-120.64897"
   transform="matrix(0.96195901,0.27319383,-0.29468939,0.95559309,0,0)" /><rect
   style="fill:#241c1c;stroke-width:3.07874;paint-order:markers fill stroke"
   id="rect2053-7"
   width="149.17216"
   height="4.4195623"
   x="619.9068"
   y="348.31155"
   transform="matrix(0.96305085,-0.26931962,0.27292443,0.96203548,0,0)" /><g
   id="g2415"
   transform="matrix(0.06794641,0,0,0.05758431,1116.417,178.09375)"><path
     d="M 910.3,851.7 H 173.6 c -27.4,0 -49.7,-22.3 -49.7,-49.7 V 305.5 c 0,-27.4 22.3,-49.7 49.7,-49.7 h 736.7 c 27.4,0 49.7,22.3 49.7,49.7 V 802 c 0,27.4 -22.3,49.7 -49.7,49.7 z"
     fill="#a7b8c6"
     id="path2229" /><path
     d="m 913.7,235.6 c 0,-27.4 -22.3,-49.7 -49.7,-49.7 H 127.3 c -27.4,0 -49.7,22.3 -49.7,49.7 v 326.8 h 836.1 z"
     fill="#e7e2d3"
     id="path2231" /><path
     d="M 127.3,781.7 H 864 c 27.4,0 49.7,-22.3 49.7,-49.7 V 481 H 77.5 v 251 c 0,27.4 22.3,49.7 49.8,49.7 z"
     fill="#4c4b4c"
     id="path2233" /><path
     d="M 864,795.3 H 127.3 C 92.4,795.3 64,766.9 64,732 V 235.6 c 0,-34.9 28.4,-63.3 63.3,-63.3 H 864 c 34.9,0 63.3,28.4 63.3,63.3 V 732 c -0.1,34.9 -28.4,63.3 -63.3,63.3 z M 127.3,199.4 c -19.9,0 -36.2,16.2 -36.2,36.2 V 732 c 0,19.9 16.2,36.2 36.2,36.2 H 864 c 19.9,0 36.2,-16.2 36.2,-36.2 V 235.6 c 0,-19.9 -16.2,-36.2 -36.2,-36.2 z"
     fill="#3e3a39"
     id="path2235" /><path
     d="m 495.6,459.9 m -187.6,0 a 187.6,187.6 0 1 0 375.2,0 187.6,187.6 0 1 0 -375.2,0 z"
     fill="#e7e2d3"
     id="path2237" /><path
     d="M 495.6,655.1 C 388,655.1 300.5,567.6 300.5,460 c 0,-107.6 87.5,-195.1 195.1,-195.1 107.6,0 195.1,87.5 195.1,195.1 0,107.5 -87.5,195.1 -195.1,195.1 z m 0,-375.2 c -99.3,0 -180.1,80.8 -180.1,180.1 0,99.3 80.8,180 180.1,180 99.3,0 180.1,-80.8 180.1,-180.1 0,-99.3 -80.8,-180 -180.1,-180 z"
     fill="#595757"
     id="path2239" /><path
     d="m 495.6,459.9 m -159,0 a 159,159 0 1 0 318,0 159,159 0 1 0 -318,0 z"
     fill="#666765"
     id="path2241" /><path
     d="m 495.6,459.9 m -97.8,0 a 97.8,97.8 0 1 0 195.6,0 97.8,97.8 0 1 0 -195.6,0 z"
     fill="#95d4eb"
     id="path2243" /><path
     d="m 495.6,563.7 c -57.2,0 -103.8,-46.6 -103.8,-103.8 0,-57.2 46.6,-103.8 103.8,-103.8 57.2,0 103.8,46.6 103.8,103.8 0,57.2 -46.6,103.8 -103.8,103.8 z m 0,-195.5 c -50.6,0 -91.7,41.2 -91.7,91.7 0,50.5 41.2,91.7 91.7,91.7 50.6,0 91.7,-41.2 91.7,-91.7 0,-50.5 -41.1,-91.7 -91.7,-91.7 z"
     fill="#595757"
     id="path2245" /><path
     d="m 539.1,419.9 m -26.7,0 a 26.7,26.7 0 1 0 53.4,0 26.7,26.7 0 1 0 -53.4,0 z"
     fill="#ffffff"
     id="path2247" /><path
     d="m 351.5,701 h 281.1 c 11.4,0 21.7,5.3 28.4,13.5 9,-3.4 15.5,-12.2 15.5,-22.4 0,-13.2 -10.8,-24 -24,-24 H 334.6 c -13.2,0 -24,10.8 -24,24 0,9.4 5.5,17.5 13.3,21.5 6.8,-7.7 16.6,-12.6 27.6,-12.6 z"
     fill="#1a1a1a"
     id="path2249" /><path
     d="m 669.1,737.2 c 0,-8.6 -3,-16.4 -8.1,-22.6 -2.6,1 -5.5,1.6 -8.5,1.6 H 334.6 c -3.8,0 -7.4,-0.9 -10.6,-2.5 -5.5,6.3 -8.9,14.6 -8.9,23.6 L 301,800.6 c 0,19.9 17.7,36.2 39.4,36.2 h 303.5 c 21.7,0 39.4,-16.3 39.4,-36.2 z"
     fill="#e7e2d3"
     id="path2251" /><path
     d="m 652.5,716.1 c 3,0 5.8,-0.6 8.5,-1.6 C 654.3,706.3 644.1,701 632.6,701 H 351.5 c -11,0 -20.8,4.9 -27.5,12.6 3.2,1.6 6.8,2.5 10.6,2.5 z"
     fill="#717071"
     id="path2253" /><path
     d="m 792.4,413.5 m -33,0 a 33,33 0 1 0 66,0 33,33 0 1 0 -66,0 z"
     fill="#717071"
     id="path2255" /><path
     d="m 792.4,449.4 c -19.8,0 -36,-16.1 -36,-36 0,-19.8 16.1,-36 36,-36 19.8,0 36,16.1 36,36 0,19.9 -16.1,36 -36,36 z m 0,-65.9 c -16.5,0 -30,13.4 -30,30 0,16.5 13.4,30 30,30 16.6,0 30,-13.4 30,-30 0,-16.6 -13.5,-30 -30,-30 z"
     fill="#595757"
     id="path2257" /><path
     d="m 800.19389,406.23356 a 12.400003,9.3000021 55.105 1 0 15.25576,-10.64058 12.400003,9.3000021 55.105 1 0 -15.25576,10.64058 z"
     fill="#b4b4b5"
     id="path2259" /><path
     d="m 173.4,413.5 m -33.1,0 a 33.1,33.1 0 1 0 66.2,0 33.1,33.1 0 1 0 -66.2,0 z"
     fill="#da8080"
     id="path2261" /><path
     d="m 173.4,451.1 c -20.8,0 -37.7,-16.9 -37.7,-37.7 0,-20.8 16.9,-37.7 37.7,-37.7 20.8,0 37.7,16.9 37.7,37.7 0,20.8 -16.9,37.7 -37.7,37.7 z m 0,-66.3 c -15.8,0 -28.6,12.8 -28.6,28.6 0,15.8 12.8,28.6 28.6,28.6 15.8,0 28.6,-12.8 28.6,-28.6 0,-15.8 -12.8,-28.6 -28.6,-28.6 z"
     fill="#ffffff"
     id="path2263" /><path
     d="m 212.6,336.3 h -78.4 c -2,0 -3.6,-1.6 -3.6,-3.6 V 285 c 0,-2 1.6,-3.6 3.6,-3.6 h 78.4 c 2,0 3.6,1.6 3.6,3.6 v 47.7 c 0,2 -1.6,3.6 -3.6,3.6 z"
     fill="#4c4b4c"
     id="path2265" /><path
     d="m 822.5,336.3 h -52.4 c -1.7,0 -3,-1.4 -3,-3 v -52.4 c 0,-1.7 1.4,-3 3,-3 h 52.4 c 1.7,0 3,1.4 3,3 v 52.4 c 0,1.6 -1.3,3 -3,3 z"
     fill="#656767"
     id="path2267" /><path
     d="m 816.4,339.3 h -40.2 c -6.7,0 -12.1,-5.4 -12.1,-12.1 V 287 c 0,-6.7 5.4,-12.1 12.1,-12.1 h 40.2 c 6.7,0 12.1,5.4 12.1,12.1 v 40.2 c 0.1,6.7 -5.4,12.1 -12.1,12.1 z m -40.2,-58.4 c -3.4,0 -6.1,2.7 -6.1,6.1 v 40.2 c 0,3.4 2.7,6.1 6.1,6.1 h 40.2 c 3.4,0 6.1,-2.7 6.1,-6.1 V 287 c 0,-3.4 -2.7,-6.1 -6.1,-6.1 z"
     fill="#3e3a39"
     id="path2269" /></g><g
   id="g3045"
   transform="matrix(2.0340681,0,0,1.3863142,1087.9613,79.099993)"><polygon
     points="14,61 28,61 28,57 32,57 32,7 28,7 28,3 14,3 14,9 7,9 7,17 3,17 3,47 7,47 7,55 14,55 "
     style="fill:#e5e6eb"
     id="polygon2875" /><polygon
     points="50,61 36,61 36,57 32,57 32,7 36,7 36,3 50,3 50,9 57,9 57,17 61,17 61,47 57,47 57,55 50,55 "
     style="fill:#d9dae2"
     id="polygon2877" /><path
     d="M 25,13 H 23 V 7 a 1,1 0 0 1 1,-1 h 4 v 2 h -3 z"
     style="fill:#ffffff"
     id="path2879" /><path
     d="m 29,57 h -2 v -5 h -4 a 1,1 0 0 1 -1,-1 v -4 h 2 v 3 h 4 a 1,1 0 0 1 1,1 z"
     style="fill:#ffffff"
     id="path2881" /><path
     d="m 18,56 h -4 v -2 h 3 V 43 a 1,1 0 0 1 1,-1 h 6 v 2 h -5 v 11 a 1,1 0 0 1 -1,1 z"
     style="fill:#ffffff"
     id="path2883" /><path
     d="M 12,48 H 7 v -2 h 4 V 39 H 9 v 2 H 7 v -3 a 1,1 0 0 1 1,-1 h 4 a 1,1 0 0 1 1,1 v 9 a 1,1 0 0 1 -1,1 z"
     style="fill:#ffffff"
     id="path2885" /><path
     d="M 24,24 H 18 A 1,1 0 0 1 17,23 V 18 H 14 A 1,1 0 0 1 13,17 V 9 h 2 v 7 h 3 a 1,1 0 0 1 1,1 v 5 h 5 z"
     style="fill:#ffffff"
     id="path2887" /><path
     d="M 12,28 H 7 A 1,1 0 0 1 6,27 V 17 h 2 v 9 h 4 z"
     style="fill:#ffffff"
     id="path2889" /><path
     d="M 41,13 H 39 V 8 H 36 V 6 h 4 a 1,1 0 0 1 1,1 z"
     style="fill:#ffffff"
     id="path2891" /><path
     d="m 37,57 h -2 v -6 a 1,1 0 0 1 1,-1 h 4 v -3 h 2 v 4 a 1,1 0 0 1 -1,1 h -4 z"
     style="fill:#ffffff"
     id="path2893" /><path
     d="M 50,56 H 46 A 1,1 0 0 1 45,55 V 44 h -5 v -2 h 6 a 1,1 0 0 1 1,1 v 11 h 3 z"
     style="fill:#ffffff"
     id="path2895" /><path
     d="m 57,48 h -5 a 1,1 0 0 1 -1,-1 v -9 a 1,1 0 0 1 1,-1 h 4 a 1,1 0 0 1 1,1 v 3 h -2 v -2 h -2 v 7 h 4 z"
     style="fill:#ffffff"
     id="path2897" /><path
     d="m 46,24 h -6 v -2 h 5 v -5 a 1,1 0 0 1 1,-1 h 3 V 9 h 2 v 8 a 1,1 0 0 1 -1,1 h -3 v 5 a 1,1 0 0 1 -1,1 z"
     style="fill:#ffffff"
     id="path2899" /><path
     d="m 57,28 h -5 v -2 h 4 v -9 h 2 v 10 a 1,1 0 0 1 -1,1 z"
     style="fill:#ffffff"
     id="path2901" /><path
     d="M 61,16 H 58 V 9 A 1,1 0 0 0 57,8 H 51 V 3 A 1,1 0 0 0 50,2 H 36 A 1,1 0 0 0 35,3 V 6 H 29 V 3 A 1,1 0 0 0 28,2 H 14 A 1,1 0 0 0 13,3 V 8 H 7 A 1,1 0 0 0 6,9 v 7 H 3 a 1,1 0 0 0 -1,1 v 30 a 1,1 0 0 0 1,1 h 3 v 7 a 1,1 0 0 0 1,1 h 6 v 5 a 1,1 0 0 0 1,1 h 14 a 1,1 0 0 0 1,-1 v -3 h 6 v 3 a 1,1 0 0 0 1,1 h 14 a 1,1 0 0 0 1,-1 v -5 h 6 a 1,1 0 0 0 1,-1 v -7 h 3 a 1,1 0 0 0 1,-1 V 17 a 1,1 0 0 0 -1,-1 z m -1,30 h -7 v -7 h 2 v 2 h 2 v -3 a 1,1 0 0 0 -1,-1 h -4 a 1,1 0 0 0 -1,1 v 9 a 1,1 0 0 0 1,1 h 4 v 6 H 47 V 43 a 1,1 0 0 0 -1,-1 h -6 v 2 h 5 v 11 a 1,1 0 0 0 1,1 h 3 v 4 H 37 v -8 h 4 a 1,1 0 0 0 1,-1 v -4 h -2 v 3 h -4 a 1,1 0 0 0 -1,1 v 5 H 33 V 40.212 H 31 V 56 h -2 v -5 a 1,1 0 0 0 -1,-1 h -4 v -3 h -2 v 4 a 1,1 0 0 0 1,1 h 4 v 8 H 15 v -4 h 3 a 1,1 0 0 0 1,-1 V 44 h 5 v -2 h -6 a 1,1 0 0 0 -1,1 V 54 H 8 v -6 h 4 a 1,1 0 0 0 1,-1 V 38 A 1,1 0 0 0 12,37 H 8 a 1,1 0 0 0 -1,1 v 3 h 2 v -2 h 2 v 7 H 4 V 18 h 2 v 9 a 1,1 0 0 0 1,1 h 5 V 26 H 8 V 10 h 5 v 7 a 1,1 0 0 0 1,1 h 3 v 5 a 1,1 0 0 0 1,1 h 6 V 22 H 19 V 17 A 1,1 0 0 0 18,16 H 15 V 4 h 12 v 2 h -3 a 1,1 0 0 0 -1,1 v 6 h 2 V 8 h 6 v 16 h 2 V 8 h 6 v 5 h 2 V 7 A 1,1 0 0 0 40,6 H 37 V 4 h 12 v 12 h -3 a 1,1 0 0 0 -1,1 v 5 h -5 v 2 h 6 a 1,1 0 0 0 1,-1 v -5 h 3 a 1,1 0 0 0 1,-1 v -7 h 5 v 16 h -4 v 2 h 5 a 1,1 0 0 0 1,-1 v -9 h 2 z"
     id="path2903" /><path
     d="m 38.8,33.848 2,-0.711 v -2.274 l -2,-0.711 -0.681,-1.652 0.912,-1.921 -1.607,-1.607 -1.921,0.912 -1.655,-0.684 -0.711,-2 h -2.274 l -0.711,2 -1.655,0.686 -1.921,-0.912 -1.607,1.607 0.912,1.921 -0.681,1.65 -2,0.711 v 2.274 l 2,0.711 0.686,1.655 -0.912,1.921 1.607,1.607 1.921,-0.912 1.655,0.685 0.711,2 h 2.274 l 0.711,-2 1.655,-0.685 1.921,0.912 1.607,-1.607 L 38.119,35.5 Z M 32,35 a 3,3 0 1 1 3,-3 3,3 0 0 1 -3,3 z"
     style="fill:#027de5"
     id="path2905" /></g><g
   id="g4071"
   transform="translate(-17.787021,5.690617)"><g
     id="g3450"
     transform="matrix(3.1840707,0,0,3.4416345,1280.0173,42.448912)"><rect
       height="40"
       rx="3.9200001"
       ry="3.9200001"
       style="fill:#d9dae2"
       width="58"
       x="3"
       y="5"
       id="rect3289" /><path
       d="M 58.662,5.338 A 3.905,3.905 0 0 1 59,6.92 V 39.08 A 3.92,3.92 0 0 1 55.08,43 H 4.92 A 3.905,3.905 0 0 1 3.338,42.662 3.918,3.918 0 0 0 6.92,45 H 57.08 A 3.92,3.92 0 0 0 61,41.08 V 8.92 A 3.918,3.918 0 0 0 58.662,5.338 Z"
       style="fill:#cfcfd9"
       id="path3291" /><path
       d="m 7,33 h 50 v 6.926 A 1.074,1.074 0 0 1 55.926,41 H 8.074 A 1.074,1.074 0 0 1 7,39.926 Z"
       style="fill:#e5e6eb"
       id="path3293" /><path
       d="m 56.037417,32.744722 v 4.926 a 1.074,1.074 0 0 1 -1.074,1.074 H 8.0374175 v 0.926 a 1.074,1.074 0 0 0 1.074,1.074 H 56.963417 a 1.074,1.074 0 0 0 1.074,-1.074 v -6.926 z"
       style="fill:#cfcfd9"
       id="path3295" /><path
       d="M 8.183,9 H 55.817 A 1.183,1.183 0 0 1 57,10.183 V 29 H 7 V 10.183 A 1.183,1.183 0 0 1 8.183,9 Z"
       style="fill:#027de5"
       id="path3297" /><path
       d="m 39,54 v -9 h -4 v 9 h -6 v -9 h -4 v 9 h -4 a 1,1 0 0 0 -1,1 v 3 a 1,1 0 0 0 1,1 h 22 a 1,1 0 0 0 1,-1 v -3 a 1,1 0 0 0 -1,-1 z"
       style="fill:#e5e6eb"
       id="path3299" /><path
       d="m 20,57 h 24 v 1.062 A 0.938,0.938 0 0 1 43.062,59 H 20.938 A 0.938,0.938 0 0 1 20,58.062 Z"
       style="fill:#cfcfd9"
       id="path3301" /><polygon
       points="29,45 25,45 29,54 "
       style="fill:#cfcfd9"
       id="polygon3303" /><polygon
       points="39,45 35,45 39,54 "
       style="fill:#cfcfd9"
       id="polygon3305" /><polygon
       points="10,12 18,12 10,20 "
       style="fill:#ffffff"
       id="polygon3307" /><polygon
       points="10,33 14,33 10,37 "
       style="fill:#ffffff"
       id="polygon3309" /><path
       d="M 57.08,4 H 6.92 A 4.925,4.925 0 0 0 2,8.92 V 41.08 A 4.925,4.925 0 0 0 6.92,46 H 24 v 7 h -4 a 1,1 0 0 0 -1,1 v 5 a 1,1 0 0 0 1,1 h 24 a 1,1 0 0 0 1,-1 V 54 A 1,1 0 0 0 44,53 H 40 V 46 H 57.08 A 4.925,4.925 0 0 0 62,41.08 V 8.92 A 4.925,4.925 0 0 0 57.08,4 Z M 39,55 h 4 v 3 H 21 v -3 h 4 a 1,1 0 0 0 1,-1 v -8 h 2 v 8 a 1,1 0 0 0 1,1 h 6 a 1,1 0 0 0 1,-1 v -8 h 2 v 8 a 1,1 0 0 0 1,1 z m -9,-9 h 4 v 7 H 30 Z M 60,41.08 A 2.923,2.923 0 0 1 57.08,44 H 6.92 A 2.923,2.923 0 0 1 4,41.08 V 8.92 A 2.923,2.923 0 0 1 6.92,6 H 57.08 A 2.923,2.923 0 0 1 60,8.92 Z"
       id="path3311" /><path
       d="M 57,32 H 7 a 1,1 0 0 0 -1,1 v 6.926 A 2.077,2.077 0 0 0 8.074,42 H 55.926 A 2.077,2.077 0 0 0 58,39.926 V 33 a 1,1 0 0 0 -1,-1 z m -1,7.926 A 0.074,0.074 0 0 1 55.926,40 H 8.074 A 0.074,0.074 0 0 1 8,39.926 V 34 h 48 z"
       id="path3313" /><rect
       style="fill:#008000;stroke-width:0.845832;paint-order:markers fill stroke"
       id="rect3895"
       width="45.359085"
       height="6.1654372"
       x="8.3071079"
       y="33.833603" /><text
       xml:space="preserve"
       style="font-weight:bold;font-size:8.05556px;font-family:sans-serif;-inkscape-font-specification:'sans-serif Bold';text-align:center;text-anchor:middle;fill:#ffffff;stroke-width:0.845832;paint-order:markers fill stroke"
       x="21.704887"
       y="41.073746"
       id="text4001"
       transform="scale(1.0396592,0.96185364)"><tspan
         sodipodi:role="line"
         id="tspan3999"
         style="fill:#ffffff;stroke-width:0.845832"
         x="21.704887"
         y="41.073746">%90</tspan></text></g><path
     d="m 1415.512,86.54553 c -0.5512,-0.12421 -1.1571,0.008 -1.502,0.32785 l -2.4526,2.27585 -1.05,-1.80639 c -0.1977,-0.34023 -0.6709,-0.56779 -1.2051,-0.57977 -0.5379,-0.013 -1.0284,0.19411 -1.2579,0.52471 l -1.8255,2.62743 c -0.2292,-0.0201 -0.4603,-0.0303 -0.6928,-0.0303 -1.9458,0 -3.7366,0.72107 -4.7051,1.8463 l -7.2251,0.12821 c -0.3756,0.006 -0.7301,0.12074 -0.9775,0.31464 -0.2472,0.19381 -0.3648,0.44982 -0.3242,0.70572 0.3256,2.04726 1.7203,3.9125 3.9269,5.2522 2.1494,1.30491 4.8815,2.03253 7.798,2.05432 v 2.73641 c 0,0 -32.7572,1.94013 -32.9126,1.95302 -3.6932,0.30554 -7.064,-1.37981 -7.594,-3.88528 -0.2568,-1.21364 0.1918,-2.42309 1.2631,-3.40559 1.0643,-0.97604 2.6165,-1.61198 4.3738,-1.79278 l 7.8188,-0.47662 c 0.7396,-0.0451 1.2857,-0.49227 1.22,-0.99887 -0.066,-0.5067 -0.7182,-0.88078 -1.4585,-0.83556 l -7.8572,0.47897 c -0.025,0.001 -0.049,0.004 -0.074,0.006 -2.4826,0.24639 -4.6766,1.14028 -6.1776,2.51692 -1.5011,1.37665 -2.1298,3.07141 -1.77,4.7718 0.6261,2.95977 4.118,5.15847 8.2694,5.47117 -0.3434,0.45595 -0.6809,1.00695 -0.9399,1.64852 -0.7096,1.75667 -0.961,4.56531 1.6886,8.13799 l -4.3186,4.01789 c -0.2203,0.20484 -0.3069,0.4629 -0.2394,0.71298 l 1.8731,6.95637 c 0.1176,0.43681 0.6738,0.75391 1.3222,0.75391 h 1.9078 c 0.388,0 0.7569,-0.1148 1.0123,-0.31494 0.2553,-0.20015 0.3719,-0.46598 0.3201,-0.72926 l -1.02,-5.17003 12.4314,-5.89816 c 0.035,-0.0163 -0.032,0.0184 0,0 1.1303,-0.65036 2.0348,-1.41328 2.6983,-2.27452 6.9401,0.83484 15.7996,1.88733 21.4853,2.51334 l 2.5471,11.09583 c 0.103,0.44785 0.6663,0.77784 1.3282,0.77784 h 1.5696 c 0.7425,0 1.3444,-0.41226 1.3444,-0.9209 v -11.0948 c 1.5182,-0.50025 2.305,-1.842 2.3052,-3.17096 V 87.42045 c -2e-4,-0.39773 -0.3729,-0.75044 -0.9243,-0.87476 z"
     id="path1653-1-0"
     style="stroke-width:0.123633" /></g><rect
   style="fill:#000000;stroke-width:2.12811;paint-order:markers fill stroke"
   id="rect4301"
   width="102.96204"
   height="4.4351797"
   x="976.40247"
   y="142.92134"
   transform="matrix(0.9998191,-0.01902041,0.02714113,0.99963161,0,0)" /><rect
   style="fill:#000000;stroke-width:1.45945;paint-order:markers fill stroke"
   id="rect4301-2"
   width="48.438557"
   height="4.433907"
   x="1216.3361"
   y="172.13129"
   transform="matrix(0.99918237,-0.0404302,0.0127641,0.99991854,0,0)" /><rect
   style="fill:#000000;stroke-width:2.13048;paint-order:markers fill stroke"
   id="rect4355"
   width="7.0010571"
   height="30.804653"
   x="-1157.1401"
   y="229.17805"
   transform="scale(-1,1)" /><rect
   style="fill:#000000;stroke-width:1.9799;paint-order:markers fill stroke"
   id="rect4355-0"
   width="7.0010571"
   height="26.604019"
   x="-1157.6904"
   y="161.31474"
   transform="scale(-1,1)" /><text
   xml:space="preserve"
   style="font-style:normal;font-variant:normal;font-weight:normal;font-stretch:normal;font-size:26.6667px;font-family:'DejaVu Sans';-inkscape-font-specification:'DejaVu Sans, Normal';font-variant-ligatures:normal;font-variant-caps:normal;font-variant-numeric:normal;font-variant-east-asian:normal;text-align:center;text-anchor:middle;fill:#0000ff;stroke-width:2.8;paint-order:markers fill stroke"
   x="1408.2726"
   y="341.90961"
   id="text4498"><tspan
     sodipodi:role="line"
     id="tspan4496"
     x="1408.2726"
     y="341.90961">Bu Gösterilen </tspan><tspan
     sodipodi:role="line"
     x="1408.2726"
     y="375.24298"
     id="tspan4500">Nesnenin Köpek </tspan><tspan
     sodipodi:role="line"
     x="1408.2726"
     y="408.57635"
     id="tspan2275">Olduğunu  Söylüyor</tspan></text><rect
   style="fill:#ff0000;stroke-width:2.34709;paint-order:markers fill stroke"
   id="rect1203-9"
   width="3.6620944"
   height="450"
   x="1254.8354"
   y="37.090828" /><rect
   style="fill:#000000;stroke-width:2.8;paint-order:markers fill stroke"
   id="rect4567"
   width="1573.2837"
   height="6.6951456"
   x="0"
   y="311.20581" /><text
   xml:space="preserve"
   style="font-style:normal;font-variant:normal;font-weight:normal;font-stretch:normal;font-size:26.6667px;font-family:'DejaVu Sans';-inkscape-font-specification:'DejaVu Sans, Normal';font-variant-ligatures:normal;font-variant-caps:normal;font-variant-numeric:normal;font-variant-east-asian:normal;text-align:center;text-anchor:middle;fill:#ff0000;stroke-width:2.8;paint-order:markers fill stroke"
   x="140.58646"
   y="468.26044"
   id="text4573"><tspan
     sodipodi:role="line"
     id="tspan4571"
     x="140.58646"
     y="468.26044">Toplama</tspan></text><text
   xml:space="preserve"
   style="font-style:normal;font-variant:normal;font-weight:normal;font-stretch:normal;font-size:26.6667px;font-family:'DejaVu Sans';-inkscape-font-specification:'DejaVu Sans, Normal';font-variant-ligatures:normal;font-variant-caps:normal;font-variant-numeric:normal;font-variant-east-asian:normal;text-align:center;text-anchor:middle;fill:#ff0000;stroke-width:2.8;paint-order:markers fill stroke"
   x="477.05258"
   y="472.37503"
   id="text4577"><tspan
     sodipodi:role="line"
     id="tspan4575"
     x="477.05258"
     y="472.37503">İşleme</tspan></text><text
   xml:space="preserve"
   style="font-style:normal;font-variant:normal;font-weight:normal;font-stretch:normal;font-size:26.6667px;font-family:'DejaVu Sans';-inkscape-font-specification:'DejaVu Sans, Normal';font-variant-ligatures:normal;font-variant-caps:normal;font-variant-numeric:normal;font-variant-east-asian:normal;text-align:center;text-anchor:middle;white-space:pre;inline-size:173.602;fill:#ff0000;stroke-width:2.8;paint-order:markers fill stroke"
   x="882.77631"
   y="457.60687"
   id="text4581"
   transform="translate(0,14.742117)"><tspan
     x="882.77631"
     y="457.60687"
     id="tspan561">Öğrenme</tspan></text><text
   xml:space="preserve"
   style="font-style:normal;font-variant:normal;font-weight:normal;font-stretch:normal;font-size:26.6667px;font-family:'DejaVu Sans';-inkscape-font-specification:'DejaVu Sans, Normal';font-variant-ligatures:normal;font-variant-caps:normal;font-variant-numeric:normal;font-variant-east-asian:normal;text-align:center;text-anchor:middle;fill:#ff0000;stroke-width:2.8;paint-order:markers fill stroke"
   x="1158.5725"
   y="467.44012"
   id="text4585"><tspan
     sodipodi:role="line"
     x="1158.5725"
     y="467.44012"
     id="tspan4591">Karar Verme</tspan></text><text
   xml:space="preserve"
   style="font-style:normal;font-variant:normal;font-weight:normal;font-stretch:normal;font-size:26.6667px;font-family:'DejaVu Sans';-inkscape-font-specification:'DejaVu Sans, Normal';font-variant-ligatures:normal;font-variant-caps:normal;font-variant-numeric:normal;font-variant-east-asian:normal;text-align:center;text-anchor:middle;fill:#ff0000;stroke-width:2.8;paint-order:markers fill stroke"
   x="1419.3517"
   y="472.5376"
   id="text4589"><tspan
     sodipodi:role="line"
     id="tspan4587"
     x="1419.3517"
     y="472.5376">Sonuç Üretme</tspan></text><text
   xml:space="preserve"
   style="font-weight:normal;font-size:26.66666667px;font-family:'DejaVu Sans';-inkscape-font-specification:'DejaVu Sans, Normal';text-align:center;text-anchor:middle;fill:#ff0000;stroke-width:2.8;paint-order:markers fill stroke;font-style:normal;font-stretch:normal;font-variant:normal;font-variant-ligatures:normal;font-variant-caps:normal;font-variant-numeric:normal;font-variant-east-asian:normal"
   x="781.20312"
   y="24.533365"
   id="text4595"><tspan
     sodipodi:role="line"
     id="tspan4593"
     x="781.20312"
     y="24.533365">Makine Öğretimi</tspan></text><g
   id="OBJECTS-36"
   transform="matrix(0.89971573,0,0,0.53663456,254.23994,110.16857)">
	
	
	
	
	<g
   id="g756"
   transform="translate(-190.81625,11.888184)">
		<g
   id="g752">
			<path
   style="fill:none"
   d="m 372.368,134.887 c -0.025,0.193 -0.06,0.385 -0.097,0.577 0.503,-0.435 0.871,-0.945 1.117,-1.545 1.395,-3.408 2.247,-6.178 2.688,-8.767 -0.191,0.389 -0.399,0.778 -0.62,1.17 -1.49,2.648 -2.699,5.48 -3.088,8.565 z"
   id="path748" />
			<path
   style="fill:#142335"
   d="m 369.438,137.626 0.214,-0.178 c 0.634,-0.527 1.29,-1.073 2.032,-1.548 0.213,-0.136 0.408,-0.282 0.587,-0.436 0.038,-0.192 0.073,-0.384 0.097,-0.577 0.389,-3.085 1.598,-5.917 3.087,-8.565 0.22,-0.392 0.429,-0.781 0.62,-1.17 0.083,-0.489 0.154,-0.972 0.208,-1.451 0.151,-1.323 -0.079,-2.82 -0.303,-4.267 l -0.04,-0.259 c -0.057,-0.09 -0.228,-0.289 -0.507,-0.488 -1.134,-0.809 -2.338,-1.591 -3.502,-2.348 -0.422,-0.274 -0.843,-0.548 -1.263,-0.824 -0.788,-0.518 -1.533,-1.051 -2.238,-1.6 0.004,2.117 -0.237,4.231 -0.639,6.343 -0.45,2.366 -0.87,4.738 -1.344,7.098 -0.285,1.416 -0.684,2.809 -0.967,4.225 -0.347,1.738 -1.221,2.935 -3.038,3.319 -0.387,0.082 -0.767,0.252 -1.117,0.442 -1.149,0.623 -1.804,2.172 -1.517,3.521 0.219,1.032 1.059,1.594 2.597,1.727 0.239,0.021 0.482,0.003 1.23,0.003 1.072,-0.156 2.624,-0.448 4.195,-0.6 0.287,-0.802 0.762,-1.666 1.608,-2.367 z"
   id="path750" />
		</g>
		<path
   style="fill:#142335"
   d="m 408.4,144.55 c -5.465,0 -10.929,0.004 -16.394,-0.005 -0.641,-10e-4 -1.291,-0.013 -1.923,-0.113 -2.028,-0.319 -2.941,-1.277 -3.232,-3.311 -0.236,-1.648 0.708,-3.485 2.274,-4.152 0.721,-0.307 1.548,-0.478 2.332,-0.499 1.117,-0.03 2.239,0.148 3.36,0.211 1.682,0.094 3.364,0.185 5.047,0.234 0.494,0.014 0.672,-0.421 0.371,-0.821 -0.483,-0.641 -1.031,-1.236 -1.483,-1.898 -1.334,-1.954 -2.166,-4.122 -2.526,-6.455 -0.203,-1.319 -0.767,-2.119 -2.19,-2.418 -1.642,-0.345 -3.219,-0.991 -4.837,-1.462 -1.171,-0.341 -1.259,-0.345 -1.714,0.646 -1.972,4.302 -4.256,8.466 -5.602,13.044 -0.565,1.921 -1.332,3.784 -2.051,5.657 -0.379,0.987 -1.086,1.474 -2.224,1.49 -1.44,0.02 -2.876,0.316 -4.317,0.346 -0.862,0.018 -1.774,-0.121 -2.585,-0.41 -1.369,-0.488 -1.959,-1.66 -1.684,-3.078 0.201,-1.037 0.559,-2.025 1.409,-2.73 0.678,-0.562 1.352,-1.14 2.091,-1.613 1.056,-0.675 1.836,-1.554 2.306,-2.703 1.404,-3.431 2.581,-6.948 3.002,-10.632 0.187,-1.641 -0.109,-3.36 -0.362,-5.016 -0.081,-0.532 -0.643,-1.096 -1.13,-1.443 -1.568,-1.119 -3.203,-2.146 -4.814,-3.205 -2.568,-1.688 -4.86,-3.66 -6.761,-6.108 -2.674,-3.443 -4.289,-7.314 -5.054,-11.577 -0.484,-2.699 -0.638,-5.418 -0.6,-8.156 0.033,-2.411 0.04,-4.823 -0.005,-7.233 -0.026,-1.36 -0.253,-2.718 -0.257,-4.077 -0.003,-1.332 -0.476,-2.215 -1.638,-2.955 -0.761,-0.485 -1.372,-1.363 -1.791,-2.195 -1.413,-2.807 -1.768,-5.808 -1.292,-8.908 0.085,-0.555 0.169,-1.122 0.354,-1.647 0.606,-1.715 0.648,-3.286 -0.156,-5.059 -1.054,-2.323 -0.736,-4.893 -0.315,-7.359 0.351,-2.055 0.861,-4.083 1.303,-6.123 0.068,-0.314 0.119,-0.637 0.234,-0.933 0.366,-0.942 1.052,-1.235 1.895,-0.7 0.738,0.469 1.484,1 2.047,1.658 1.355,1.584 2.714,3.187 3.859,4.922 0.786,1.191 1.599,1.789 3.08,1.761 1.344,-0.026 2.709,0.271 4.039,0.55 1.551,0.325 1.585,0.412 2.449,-1.002 1.397,-2.285 3.135,-4.271 5.108,-6.062 0.471,-0.428 0.987,-0.827 1.539,-1.14 0.696,-0.394 1.254,-0.19 1.523,0.578 0.263,0.751 0.432,1.541 0.572,2.327 0.484,2.707 0.576,5.447 0.204,8.158 -0.193,1.406 -0.696,2.808 -1.289,4.107 -0.5,1.096 -0.574,2.101 -0.37,3.255 0.305,1.729 0.641,3.488 0.622,5.231 -0.023,2.107 -0.642,4.13 -2.051,5.8 -0.52,0.616 -0.403,1.158 0.044,1.719 1.023,1.283 2.307,2.247 3.795,2.9 2.363,1.037 4.825,1.746 7.404,2.028 5.849,0.638 11.537,2.035 17.149,3.747 2.952,0.901 5.565,2.456 7.994,4.354 5.14,4.017 8.649,9.236 11.193,15.152 3.326,7.735 5.313,15.808 5.931,24.213 0.094,1.281 0.212,2.56 0.338,3.838 0.063,0.641 0.414,0.892 0.967,0.644 5.786,-2.598 10.397,-7.954 8.619,-15.631 -0.735,-3.173 -2.483,-5.713 -4.65,-8.029 -2.525,-2.699 -5.166,-5.298 -7.569,-8.1 -3.585,-4.181 -5.411,-9.058 -5.142,-14.633 0.183,-3.784 1.545,-7.017 4.403,-9.575 2.821,-2.525 6.056,-4.132 9.802,-4.833 4.344,-0.813 10.222,1.961 12.569,6.365 1.098,2.059 1.421,4.254 0.689,6.521 -0.475,1.472 -1.463,2.286 -2.739,2.34 -1.191,0.051 -2.023,-0.456 -2.438,-1.561 -0.225,-0.599 -0.308,-1.253 -0.549,-1.844 -0.3,-0.735 -0.589,-1.514 -1.069,-2.128 -2.498,-3.191 -6.039,-3.679 -9.31,-1.208 -2.141,1.617 -3.384,3.846 -3.611,6.551 -0.269,3.198 0.747,6.009 2.712,8.511 1.948,2.482 4.32,4.527 6.681,6.591 2.93,2.56 5.468,5.419 7.002,9.078 1.67,3.984 2.003,8.078 1.171,12.278 -1.748,8.828 -7.415,14.338 -15.299,17.944 -0.29,0.132 -0.602,0.22 -0.911,0.304 -0.772,0.211 -1.7,0.217 -2.273,0.673 -0.457,0.364 -0.465,1.276 -0.705,1.933 -0.763,2.094 -2.413,2.907 -4.497,2.997 -2.087,0.09 -4.176,0.142 -6.265,0.154 -3.937,0.024 -7.874,0.007 -11.811,0.007 0.002,-0.03 0.002,-0.053 0.002,-0.077 z"
   id="path754" />
	</g>
	<g
   id="g764"
   transform="translate(36.908823,-297.01603)">
		<g
   id="g760">
			<path
   style="fill:#142335"
   d="m 441.831,447.677 c -0.277,-0.739 -0.794,-1.239 -1.523,-1.423 -1.088,-0.275 -1.521,-1.054 -1.856,-2.009 -0.796,-2.273 -1.569,-4.558 -2.466,-6.792 -2.098,-5.225 -2.927,-10.652 -2.806,-16.256 0.047,-2.168 0.008,-4.339 0.008,-6.508 -0.046,0 -0.092,0 -0.138,0 0,-2.17 0.051,-4.341 -0.012,-6.509 -0.019,-0.658 -0.042,-1.315 -0.066,-1.972 -0.487,0.745 -1.03,1.461 -1.628,2.146 -1.89,2.162 -3.997,4.102 -5.622,5.55 -1.68,1.497 -3.063,3.235 -4.528,5.075 -0.165,0.208 -0.331,0.415 -0.497,0.623 0.257,0.605 0.522,1.208 0.74,1.827 0.904,2.576 1.704,5.189 2.641,7.752 1.846,5.052 3.754,10.081 5.643,15.116 0.367,0.977 0.734,1.957 1.165,2.907 0.364,0.801 0.749,1.611 1.262,2.317 0.299,0.412 0.828,0.784 1.321,0.907 2.206,0.553 4.466,0.574 6.702,0.272 1.664,-0.227 2.25,-1.45 1.66,-3.023 z"
   id="path758" />
		</g>
		<path
   style="fill:#142335"
   d="m 370.88,424.477 c -0.099,-4.915 0.035,-9.81 1.37,-14.582 1.682,-6.014 4.038,-11.714 8.018,-16.596 4.396,-5.392 9.939,-9.073 16.762,-10.685 2.358,-0.557 4.767,-0.727 7.183,-0.556 0.894,0.063 1.482,-0.114 1.976,-0.941 1.676,-2.806 3.872,-5.116 6.758,-6.723 0.273,-0.152 0.52,-0.372 0.735,-0.602 0.357,-0.382 0.3,-0.959 -0.121,-1.266 -0.258,-0.188 -0.557,-0.32 -0.835,-0.48 -1.544,-0.887 -2.479,-2.197 -2.966,-3.921 -0.676,-2.393 -1.458,-4.757 -2.243,-7.118 -0.171,-0.516 -0.501,-0.995 -0.828,-1.441 -1.592,-2.176 -2.6,-4.609 -3.246,-7.208 -0.058,-0.234 -0.145,-0.463 -0.184,-0.699 -0.267,-1.622 0.323,-2.302 2.002,-2.014 1.252,0.215 2.487,0.644 3.668,1.128 1.185,0.486 2.307,1.134 3.431,1.757 0.619,0.343 1.174,0.38 1.821,0.07 0.722,-0.346 1.483,-0.621 2.244,-0.873 1.463,-0.485 2.969,-0.809 4.503,-0.486 1.059,0.223 1.613,-0.107 2.057,-1.091 1.25,-2.772 3.297,-4.925 5.622,-6.827 1.826,-1.493 2.431,-1.312 3.143,0.983 0.551,1.774 0.884,3.604 0.721,5.465 -0.154,1.757 -0.489,3.497 -0.658,5.253 -0.091,0.947 -0.163,1.948 0.042,2.86 0.478,2.117 0.406,4.259 -0.364,6.176 -1.082,2.694 -0.901,5.392 -0.545,8.068 0.486,3.652 1.258,7.272 2.021,10.881 0.915,4.326 1.821,8.621 1.596,13.106 -0.215,4.274 -1.611,8.03 -4.392,11.212 -1.686,1.93 -3.569,3.704 -5.486,5.412 -2.061,1.837 -3.698,4.012 -5.408,6.141 -0.818,1.018 -0.953,2.245 -0.964,3.412 -0.029,3.29 0.108,6.581 0.186,9.871 0.019,0.803 0.075,1.605 0.088,2.408 0.052,3.235 0.638,6.389 1.473,9.499 0.501,1.865 0.54,1.826 2.426,1.979 0.708,0.057 1.428,0.207 2.099,0.439 1.734,0.6 2.31,3.493 1.158,4.966 -0.302,0.386 -0.949,0.663 -1.457,0.696 -1.919,0.125 -3.839,0.211 -5.759,-0.194 -1.656,-0.35 -2.754,-1.264 -3.335,-2.804 -1.644,-4.358 -3.256,-8.728 -4.893,-13.089 -0.218,-0.581 -0.389,-1.495 -0.788,-1.625 -0.71,-0.231 -0.915,0.726 -1.277,1.203 -1.909,2.516 -4.116,4.719 -6.636,6.619 -0.215,0.162 -0.292,0.506 -0.433,0.766 0.219,0.078 0.435,0.206 0.659,0.224 1.6,0.129 3.21,0.17 4.8,0.374 0.943,0.121 1.895,0.394 2.771,0.768 1.625,0.694 2.169,2.021 1.671,3.741 -0.089,0.308 -0.197,0.612 -0.308,0.914 -0.973,2.648 -2.504,3.458 -5.228,2.769 -0.078,-0.02 -0.158,-0.04 -0.228,-0.077 -2.668,-1.395 -5.471,-0.861 -8.271,-0.638 -1.917,0.152 -3.85,0.176 -5.773,0.143 -1.842,-0.032 -3.682,-0.214 -5.523,-0.325 -2.965,-0.179 -5.93,-0.351 -8.894,-0.534 -0.4,-0.025 -0.804,-0.07 -1.193,-0.161 -1.155,-0.273 -1.535,-0.69 -1.285,-1.856 0.161,-0.75 0.013,-1.155 -0.509,-1.663 -0.86,-0.836 -1.665,-1.745 -2.387,-2.703 -0.526,-0.698 -1.057,-0.857 -1.858,-0.571 -0.982,0.35 -2.022,0.544 -2.992,0.922 -1.985,0.774 -4.107,1.077 -6.147,1.013 -3.357,-0.106 -6.732,-0.561 -9.874,-1.92 -2.274,-0.983 -4.012,-2.632 -5.398,-4.668 -1.561,-2.293 -2.521,-4.808 -3.055,-7.535 -0.751,-3.83 -0.921,-7.632 -0.077,-11.465 1.23,-5.586 4.166,-10.04 8.786,-13.389 1.626,-1.178 3.282,-2.314 4.923,-3.471 2.185,-1.541 4.07,-3.39 5.676,-5.527 0.935,-1.244 1.479,-2.61 1.729,-4.173 0.398,-2.497 0.448,-4.959 -0.198,-7.402 -0.244,-0.923 -0.574,-1.86 -1.06,-2.674 -1.333,-2.232 -3.219,-3.543 -5.973,-3.217 -0.795,0.094 -1.603,0.096 -2.405,0.112 -0.847,0.017 -1.576,-0.306 -2.164,-0.903 -0.675,-0.686 -0.917,-1.448 -0.487,-2.405 1.091,-2.426 2.971,-3.751 5.575,-4.013 2.981,-0.3 5.612,0.664 7.686,2.758 1.689,1.706 3.216,3.605 4.199,5.846 2.315,5.279 2.318,10.624 0.197,15.934 -0.77,1.928 -1.808,3.767 -2.883,5.55 -0.61,1.012 -1.449,1.939 -2.351,2.711 -1.646,1.409 -3.404,2.688 -5.134,3.997 -3.216,2.433 -5.599,5.497 -7.144,9.228 -2.005,4.843 -1.588,9.586 0.613,14.223 0.805,1.696 2.072,3.059 3.717,4.016 3.516,2.045 7.243,2.515 11.138,1.351 0.832,-0.249 1.618,-0.704 2.371,-1.153 0.872,-0.52 1.324,-1.277 1.374,-2.373 0.154,-3.445 0.411,-6.885 0.629,-10.327 z"
   id="path762" />
	</g>
	<g
   id="g772"
   transform="matrix(0.79656171,0,0,1.1313433,9.2467618,-7.3992376)">
		<path
   style="fill:none"
   d="m 142.65,128.422 c -0.186,1.62 -0.25,3.218 -0.195,4.806 0.018,0.502 0.04,1.036 0.101,1.549 0.089,0.739 0.262,1.187 0.622,1.516 -0.257,-1.334 -0.422,-2.694 -0.499,-4.049 -0.073,-1.279 -0.076,-2.552 -0.029,-3.822 z"
   id="path766" />
		<path
   style="fill:#142335"
   d="m 144.997,118.985 c -1.22,3.271 -1.998,6.391 -2.347,9.437 -0.047,1.27 -0.044,2.543 0.029,3.821 0.077,1.355 0.242,2.716 0.499,4.049 0.136,0.124 0.297,0.232 0.492,0.331 1.365,0.697 2.414,1.733 3.048,2.987 0.04,0.003 0.079,0.007 0.119,0.01 0.638,0.049 4.479,-0.123 5.743,-0.3 0.596,-0.083 1.027,-0.429 1.191,-1.043 0.39,-1.464 -0.47,-3.926 -1.909,-4.284 -2.109,-0.525 -2.062,-1.906 -1.983,-3.474 0.048,-0.961 0.018,-1.941 0.199,-2.879 0.776,-4.012 1.59,-8.017 2.453,-12.011 0.218,-1.011 0.458,-2.135 1.061,-2.919 0.221,-0.288 0.385,-0.592 0.515,-0.907 -2.248,1.581 -4.489,3.014 -6.676,4.264 -1.215,0.696 -1.92,1.541 -2.434,2.918 z"
   id="path768" />
		<path
   style="fill:#142335"
   d="m 176.218,57.566 c -0.367,-1.267 -0.739,-1.483 -1.9,-0.979 -0.953,0.414 -1.945,0.837 -2.753,1.47 -1.447,1.133 -2.791,2.403 -4.13,3.667 -0.492,0.465 -0.894,0.868 -1.656,0.656 -2.043,-0.569 -4.131,-0.549 -6.217,-0.326 -0.868,0.093 -1.496,-0.188 -2.168,-0.744 -1.418,-1.174 -2.893,-2.292 -4.433,-3.298 -1.219,-0.797 -2.642,-1.182 -4.109,-1.251 -1.273,-0.059 -1.725,0.452 -1.619,1.744 0.232,2.821 0.93,5.542 1.887,8.193 0.347,0.962 0.411,1.836 0.016,2.792 -0.429,1.037 -0.826,2.099 -1.108,3.183 -0.258,0.995 -0.816,1.727 -1.565,2.363 -4.507,3.826 -9.782,5.816 -15.612,6.271 -4.258,0.332 -8.51,0.022 -12.707,-0.842 -5.579,-1.148 -11.146,-1.127 -16.753,-0.083 -6.774,1.261 -13.22,3.383 -19.186,6.857 -1.384,0.806 -2.738,1.698 -3.986,2.7 -2.871,2.303 -5.118,5.135 -6.347,8.628 -0.46,1.306 -1.028,2.495 -1.752,3.663 -2.691,4.337 -3.439,9.116 -2.905,14.113 0.239,2.231 0.775,4.429 1.035,6.659 0.166,1.427 0.235,2.902 0.07,4.323 -0.537,4.618 -3.001,7.168 -7.484,7.826 -2.781,0.408 -4.757,-0.84 -5.683,-3.025 -0.884,-2.087 -1.066,-4.182 -0.243,-6.327 0.288,-0.75 0.602,-1.494 0.826,-2.263 0.453,-1.551 -0.059,-2.871 -1.174,-3.944 -1.077,-1.037 -2.381,-1.263 -3.799,-0.782 -3.072,1.042 -4.666,3.322 -5.136,6.403 -0.621,4.07 0.457,7.811 2.561,11.272 2.948,4.851 7.241,7.188 12.948,6.584 7.018,-0.743 11.617,-4.523 13.358,-11.026 0.777,-2.9 0.815,-5.875 0.524,-8.853 -0.148,-1.516 -0.303,-3.032 -0.504,-5.036 0.205,-1.613 0.429,-3.682 0.751,-5.736 0.109,-0.697 0.442,-1.366 0.723,-2.027 0.142,-0.333 0.471,-0.445 0.795,-0.235 0.471,0.304 0.943,0.616 1.365,0.981 2.395,2.067 3.881,4.693 4.597,7.748 0.678,2.891 1.371,5.77 0.86,8.808 -0.263,1.561 0.094,3.045 1.709,3.911 0.413,0.221 0.742,0.611 1.084,0.949 2.861,2.823 5.763,5.61 7.945,9.03 0.824,1.29 1.938,2.093 3.5,2.283 2.071,0.252 4.152,0.482 6.193,0.896 1.397,0.283 2.725,0.145 4.05,-0.169 2.371,-0.563 3.103,-3.102 1.353,-4.806 -0.61,-0.594 -1.441,-1.051 -2.254,-1.326 -1.44,-0.487 -2.929,-0.86 -4.425,-1.136 -0.94,-0.174 -1.675,-0.56 -2.21,-1.305 -0.562,-0.781 -1.129,-1.573 -1.567,-2.426 -0.842,-1.637 -0.689,-2.352 0.685,-3.591 1.074,-0.968 2.214,-1.863 3.286,-2.834 1.91,-1.731 3.839,-3.497 4.956,-5.849 0.629,-1.325 1.48,-1.799 2.813,-1.735 0.641,0.031 1.281,0.067 1.922,0.107 1.842,0.115 3.684,0.349 5.524,0.325 3.662,-0.046 7.166,-0.78 10.346,-2.747 1.765,-1.091 2.049,-0.941 2.654,1.025 0.047,0.154 0.13,0.302 0.146,0.458 0.345,3.178 1.169,6.355 0.111,9.543 -0.299,0.9 -0.232,1.723 0.202,2.551 1.226,2.338 1.51,4.932 1.621,7.472 0.08,1.837 0.52,3.148 1.968,4.334 1.12,0.917 2.144,1.577 3.644,1.46 1.196,-0.094 2.409,0.043 3.614,0.034 0.558,-0.004 1.132,-0.046 1.669,-0.185 1.472,-0.381 1.93,-1.227 1.535,-2.717 -0.398,-1.503 -1.432,-2.573 -2.721,-3.23 -1.336,-0.682 -1.794,-1.726 -1.953,-3.049 -0.067,-0.557 -0.092,-1.119 -0.111,-1.68 -0.178,-5.136 0.849,-10.043 2.64,-14.842 0.625,-1.674 1.548,-2.825 3.121,-3.724 2.643,-1.511 5.203,-3.193 7.669,-4.981 2.095,-1.52 3.829,-3.456 4.881,-5.872 1.289,-2.959 2.206,-6.023 2.443,-9.274 0.151,-2.078 0.412,-4.149 0.656,-6.22 0.179,-1.516 0.923,-2.503 2.551,-2.733 0.62,-0.088 1.217,-0.404 1.803,-0.664 3.013,-1.335 5.196,-3.446 6.195,-6.661 0.612,-1.969 0.677,-3.962 0.136,-5.938 -0.257,-0.938 -0.149,-1.656 0.429,-2.458 1.528,-2.12 2.378,-4.541 2.855,-7.098 0.331,-1.758 0.449,-3.514 -0.055,-5.255 z"
   id="path770" />
	</g>
	<g
   id="g782"
   transform="translate(229.75772,-139.39715)">
		<g
   id="g778">
			<path
   style="fill:#142335"
   d="m 109.628,268.888 c 0.047,0.673 0.079,1.347 0.078,2.021 -0.005,1.999 -0.236,3.998 -0.368,5.997 -0.128,1.368 -0.137,2.716 0.463,4.012 0.825,1.782 1.032,3.686 1.066,5.632 0.032,1.843 0.204,3.683 0.25,5.526 0.033,1.31 0.559,2.374 1.587,3.092 0.905,0.632 1.903,1.211 2.945,1.55 1.576,0.513 3.197,0.255 4.703,-0.394 1.53,-0.659 1.807,-1.782 0.783,-3.052 -0.448,-0.555 -0.963,-1.173 -1.586,-1.446 -1.723,-0.755 -2.021,-2.102 -1.873,-3.737 0.036,-0.399 -0.015,-0.806 0.026,-1.203 0.321,-3.084 0.581,-6.177 0.956,-9.254 -2.635,-3.604 -5.976,-6.419 -9.03,-8.744 z"
   id="path774" />
			<path
   style="fill:#142335"
   d="m 84.205,261.365 c -0.187,-0.003 -0.358,-0.005 -0.513,-0.005 -0.224,0 -0.372,0.005 -0.47,0.012 -0.098,0.225 -0.234,0.616 -0.357,0.971 l -0.076,0.219 c -1.162,3.325 -3.051,6.485 -5.945,9.947 -1.061,1.269 -2.092,2.429 -3.113,3.502 0.025,1.315 0.469,2.555 1.446,3.709 2.388,2.819 4.726,5.682 7.065,8.543 0.823,1.006 1.839,1.522 3.14,1.48 0.401,-0.013 0.804,-0.002 1.206,-0.002 0.002,0.024 0.004,0.047 0.006,0.071 0.877,-0.082 1.788,-0.049 2.62,-0.288 0.56,-0.161 1.211,-0.602 1.469,-1.1 0.848,-1.632 -0.305,-3.939 -2.125,-4.423 -0.458,-0.122 -0.959,-0.166 -1.431,-0.128 -1.005,0.079 -1.656,-0.4 -2.229,-1.153 -1.325,-1.741 -2.331,-3.645 -3.139,-5.674 -0.851,-2.137 -0.543,-4.095 0.727,-5.943 0.454,-0.661 0.969,-1.28 1.462,-1.913 0.74,-0.95 1.442,-1.936 2.239,-2.836 1.11,-1.253 1.411,-2.823 1.821,-4.346 -0.313,-0.1 -0.622,-0.198 -0.925,-0.294 -0.886,-0.282 -1.952,-0.335 -2.878,-0.349 z"
   id="path776" />
		</g>
		<path
   style="fill:#142335"
   d="m 92.998,215.228 c -5.078,-0.147 -9.725,-1.793 -14.12,-4.284 -1.676,-0.95 -3.328,-1.967 -5.082,-2.747 -5.328,-2.372 -12.831,-0.425 -16.364,4.193 -1.532,2.002 -2.101,4.237 -1.711,6.79 0.332,2.173 0.907,4.225 1.881,6.186 0.451,0.907 1.1,1.562 2,2 0.855,0.416 1.542,0.382 2.424,-0.204 3.591,-2.387 7.461,-4.158 11.882,-4.12 3.86,0.033 7.689,0.472 11.47,1.313 6.192,1.377 12.407,2.662 18.715,3.381 3.188,0.364 6.402,0.63 9.607,0.674 3.062,0.042 6.046,-0.664 8.954,-1.662 1.365,-0.469 2.19,-1.178 2.09,-2.77 -0.054,-0.865 0.195,-1.749 0.3,-2.624 0.233,-1.932 0.178,-3.797 -0.575,-5.672 -1.146,-2.854 -1.631,-5.873 -1.619,-8.955 0.008,-2.095 0.756,-2.605 2.678,-1.794 0.655,0.277 1.266,0.699 1.834,1.136 2.175,1.674 4.204,3.499 5.618,5.897 0.389,0.661 0.819,0.878 1.571,0.546 2.21,-0.979 4.492,-1.214 6.807,-0.403 0.752,0.264 1.192,0.065 1.572,-0.608 1.535,-2.717 3.696,-4.844 6.317,-6.505 0.647,-0.41 1.282,-1.215 2.123,-0.794 0.852,0.426 0.572,1.403 0.612,2.179 0.16,3.091 -0.198,6.085 -1.55,8.927 -0.297,0.625 -0.419,1.395 -0.405,2.094 0.039,1.842 0.212,3.681 0.303,5.523 0.083,1.681 0.128,3.344 -0.217,5.032 -0.879,4.296 -3.617,6.841 -7.522,8.374 -0.373,0.146 -0.76,0.266 -1.15,0.358 -0.636,0.151 -0.954,0.547 -0.992,1.185 -0.019,0.321 -0.036,0.642 -0.038,0.963 -0.042,5.632 -2.025,10.683 -4.722,15.496 -1.374,2.451 -2.806,4.88 -4.382,7.204 -1.779,2.622 -2.122,5.496 -1.91,8.511 0.255,3.625 1.023,7.133 2.389,10.523 0.869,2.156 1.528,4.397 2.287,6.597 0.34,0.986 0.705,1.964 1.036,2.954 0.362,1.082 1.077,1.743 2.193,2.01 0.78,0.186 1.559,0.394 2.312,0.667 1.346,0.487 1.81,1.328 1.777,3.056 -0.027,1.409 -0.407,1.952 -1.885,2.412 -1.855,0.577 -3.764,0.844 -5.709,0.695 -1.551,-0.119 -2.759,-0.775 -3.393,-2.292 -0.465,-1.111 -1.014,-2.188 -1.463,-3.305 -2.108,-5.238 -4.856,-10.134 -7.843,-14.909 -2.822,-4.512 -6.727,-7.944 -10.918,-11.104 -0.936,-0.706 -2.004,-1.014 -3.138,-1.106 -3.731,-0.302 -7.191,-1.522 -10.631,-2.921 -2.895,-1.176 -5.876,-2.153 -8.857,-3.097 -1.049,-0.332 -2.21,-0.403 -3.323,-0.42 -2.194,-0.035 -2.141,0.034 -2.912,2.24 -1.236,3.536 -3.289,6.614 -5.669,9.461 -1.544,1.846 -3.174,3.638 -4.911,5.301 -1.942,1.86 -2.563,3.919 -1.873,6.535 0.564,2.137 1.472,4.066 2.696,5.875 0.72,1.064 1.478,2.106 2.144,3.203 0.524,0.865 0.351,1.5 -0.487,2.047 -0.396,0.258 -0.852,0.531 -1.304,0.58 -1.685,0.182 -3.369,0.164 -5.007,-0.381 -0.976,-0.325 -1.68,-0.932 -1.984,-1.935 -0.162,-0.536 -0.341,-1.077 -0.416,-1.629 -0.501,-3.673 -1.436,-7.245 -2.559,-10.766 -0.772,-2.422 -0.902,-4.835 -0.586,-7.364 0.367,-2.94 0.513,-5.916 0.579,-8.88 0.037,-1.672 -0.221,-3.36 -0.456,-5.025 -0.216,-1.532 -0.931,-2.883 -1.764,-4.186 -1.168,-1.826 -2.332,-3.661 -3.364,-5.564 -2.107,-3.888 -2.063,-7.997 -1.036,-12.171 0.077,-0.311 0.154,-0.632 0.296,-0.916 0.849,-1.7 0.971,-3.206 -1.044,-4.186 -4.797,-5.099 -6.798,-10.983 -5.017,-17.92 0.179,-0.698 0.445,-1.375 0.667,-2.062 1.802,-5.578 5.825,-8.726 11.324,-10.098 7.229,-1.805 14.186,-1.039 20.771,2.569 2.927,1.604 6.049,2.578 9.386,2.815 0.72,0.051 1.445,0.038 2.168,0.038 1.707,-0.001 3.12,-0.645 4.24,-1.94 0.577,-0.668 1.129,-1.368 1.771,-1.97 2.294,-2.154 5.155,-1.579 6.509,1.273 1.1,2.318 0.502,4.396 -0.97,6.295 -1.168,1.506 -2.77,2.41 -4.569,2.994 -2.547,0.825 -5.178,1.085 -7.856,1.187 z"
   id="path780" />
	</g>
	
</g><g
   id="g2093"
   transform="matrix(0.9008362,0,0,0.80380557,429.05079,54.687453)"><g
     id="g1405"
     transform="matrix(0.23317531,0,0,0.18649176,-32.127309,-14.063819)">
	<path
   d="m 422.48,339.224 1,-5.229 c 0.468,-2.447 -0.099,-4.979 -1.567,-6.992 -1.467,-2.013 -3.703,-3.328 -6.176,-3.632 l -54.965,-6.75 -21.309,-28.007 c 0.849,-1.475 4.553,-7.711 4.553,-7.711 13.045,11.556 29.114,17.462 45.494,17.462 15.906,0 32.106,-5.571 46.108,-16.944 1.953,-1.586 3.153,-3.918 3.309,-6.429 0.155,-2.511 -0.747,-4.973 -2.489,-6.788 L 407.164,237.7 c 2.972,-12.551 -1.642,-25.747 -11.622,-33.741 l 8.061,-23.088 c 1.18,-3.378 0.246,-7.135 -2.379,-9.567 -2.624,-2.432 -6.44,-3.079 -9.721,-1.647 l -13.729,5.997 3.253,-22.402 c 0.566,-3.9 -1.47,-7.714 -5.025,-9.414 -3.556,-1.699 -7.802,-0.888 -10.481,2.002 L 294.845,222.078 42.836,130.263 C 23.247,123.098 13.14,101.332 20.305,81.744 23.776,72.255 30.735,64.685 39.899,60.43 c 9.165,-4.256 19.437,-4.688 28.926,-1.217 4.668,1.709 9.836,-0.693 11.544,-5.36 1.708,-4.668 -0.692,-9.836 -5.36,-11.544 C 61.006,37.186 45.844,37.825 32.319,44.105 18.793,50.384 8.523,61.556 3.401,75.56 c -10.575,28.911 4.342,61.033 33.252,71.607 l 12.743,4.661 c -0.192,0.494 0.195,-0.505 0,0 -3.856,6.74 -9.415,18.695 -12.141,31.414 -4.255,19.859 -3.679,48.905 21.782,76.93 l -27.321,66.89 c -0.798,1.954 -0.884,4.126 -0.243,6.137 l 21.207,66.505 c 1.202,3.769 4.699,6.266 8.568,6.266 0.377,0 0.758,-0.023 1.14,-0.072 l 12.793,-1.625 c 2.648,-0.336 5.01,-1.83 6.448,-4.079 1.438,-2.248 1.804,-5.02 0.999,-7.564 l -15.102,-47.738 57.207,-51.315 53.734,30.76 c 0.107,0.062 -0.11,-0.057 0,0 22.221,11.604 45.66,17.916 67.785,17.916 7.715,0 15.197,-0.732 22.391,-2.154 l 42.466,48.756 c 1.503,1.726 3.607,2.814 5.885,3.043 l 71.603,7.213 c 0.306,0.031 0.609,0.046 0.91,0.046 4.27,0 8.014,-3.033 8.831,-7.31 l 1,-5.229 c 0.468,-2.447 -0.099,-4.979 -1.567,-6.992 -1.467,-2.013 -3.703,-3.328 -6.176,-3.632 l -53.875,-6.616 -24.307,-50.016 c 1.396,-1.123 2.766,-2.284 4.107,-3.483 l 17.727,20.352 c 1.503,1.726 3.607,2.814 5.885,3.044 l 71.604,7.213 c 0.306,0.031 0.609,0.046 0.91,0.046 4.273,0.001 8.016,-3.032 8.834,-7.31 z"
   id="path1401" />
	<path
   d="m 430.238,357.555 c -8.057,0 -14.612,6.555 -14.612,14.612 0,8.057 6.555,14.612 14.612,14.612 8.057,0 14.612,-6.555 14.612,-14.612 10e-4,-8.057 -6.554,-14.612 -14.612,-14.612 z"
   id="path1403" />
</g><path
     d="m 192.6045,8.5616426 c -0.18316,-0.4862301 -0.56105,-0.8735195 -1.04247,-1.0678922 l -8.08714,-3.2672957 c -0.50247,-2.6162318 -2.48676,-4.71152898 -5.04036,-5.3720927 l -0.43625,-5.0323144 c -0.0637,-0.7363726 -0.55734,-1.3649221 -1.25679,-1.6010165 -0.69987,-0.2360943 -1.47234,-0.034483 -1.968,0.5130853 l -2.07547,2.2925612 -1.28278,-4.4958894 c -0.22112,-0.7749952 -0.91604,-1.3190612 -1.72048,-1.3471572 -0.80547,-0.02704 -1.53525,0.466406 -1.80979,1.2244609 l -9.58506,26.4796001 -35.47433,1.658437 c -0.0149,5.97e-4 -0.0299,0.0013 -0.0445,0.002 -7.28207,0.437894 -14.1776,-3.46311 -17.5672,-9.9392486 -0.47607,-0.9094651 -1.59816,-1.2606078 -2.50595,-0.783676 -0.90819,0.4767305 -1.25844,1.6001913 -0.78258,2.5094486 3.01192,5.75484 8.33178,9.814902 14.43874,11.320071 -0.21679,0.191682 -0.43481,0.393696 -0.65345,0.609543 -2.3298,2.301444 -5.1107,6.507743 -5.51478,13.651879 l -8.03722,3.534995 c -0.46947,0.206347 -0.8327,0.598185 -1.0037,1.082141 L 96.943571,52.45753 c -0.298471,0.845436 0.04809,1.783608 0.824043,2.231008 l 2.02225,1.165592 c 0.285066,0.164418 0.604776,0.247868 0.926346,0.247868 0.21658,0 0.43399,-0.03797 0.64191,-0.114639 0.51649,-0.190649 0.92202,-0.601077 1.10683,-1.120563 l 2.99068,-8.407225 7.21565,-0.597978 -2.19262,2.982248 c -0.30405,0.413527 -0.42368,0.934455 -0.33065,1.439282 l 2.2906,12.438158 c 0.16234,0.881785 0.93027,1.5219 1.82568,1.5219 h 2.3333 c 0.55052,0 1.0728,-0.244769 1.42551,-0.668004 0.35272,-0.423436 0.49958,-0.981758 0.40099,-1.523966 l -1.59631,-8.780265 15.49235,-10.734693 c 0.0479,-0.03307 -0.0445,0.03737 0,0 1.46739,-1.234168 2.53256,-2.593509 3.29451,-3.99127 7.80084,1.371322 18.6992,3.320999 25.72695,4.461185 0.0938,0.0432 -0.10149,-0.02724 0,0 l 14.56229,19.937776 c 0.35994,0.492845 0.92305,0.761779 1.49936,0.761779 0.28754,0 0.57838,-0.06695 0.84879,-0.206348 l 1.70666,-0.880134 c 0.4377,-0.225763 0.76793,-0.61636 0.91809,-1.085859 0.15017,-0.469505 0.10788,-0.979699 -0.11756,-1.418008 l -7.55023,-14.682383 7.73896,1.577053 -0.18647,2.68336 c -0.0473,0.682461 0.28342,1.336007 0.86117,1.701198 l 1.13881,0.719634 c 0.29991,0.189415 0.64397,0.286907 0.99091,0.286907 0.18997,0 0.38097,-0.02932 0.56579,-0.08841 0.52268,-0.167511 0.9445,-0.558108 1.15221,-1.066651 l 2.66023,-6.512285 c 0.19493,-0.47714 0.18317,-1.014189 -0.0324,-1.482245 -0.21555,-0.468258 -0.61571,-0.825599 -1.10456,-0.987126 L 173.01447,37.44755 c 0.0134,-0.06179 4.17011,-19.274113 4.17011,-19.274113 0.77598,0.129506 1.55959,0.197673 2.34897,0.197673 5.4366,0 10.41508,-3.187361 12.9924,-8.3182 0.23328,-0.4643393 0.26174,-1.0050982 0.0786,-1.491335 z"
     id="path1529"
     style="stroke-width:0.206412" /><path
     d="m -55.932454,-5.9520062 c -0.93503,-0.2156955 -1.962797,0.013683 -2.547885,0.5692851 l -4.160237,3.9519451 -1.781112,-3.1367495 c -0.335243,-0.5907813 -1.137998,-0.9859421 -2.044138,-1.006731 -0.912474,-0.022607 -1.744368,0.3370577 -2.133838,0.9111351 l -3.09648,4.56245112 c -0.388711,-0.0350337 -0.780712,-0.0526167 -1.174993,-0.0526167 -3.300723,0 -6.338421,1.25210598 -7.981179,3.20604368 l -12.255697,0.2226361 c -0.637288,0.011568 -1.238595,0.2096605 -1.658213,0.5463612 -0.419368,0.3365222 -0.618789,0.7810805 -0.549867,1.2254538 0.552402,3.5549996 2.918094,6.7939152 6.660989,9.1202682 3.6461,2.265943 8.280435,3.529425 13.227464,3.567268 v 4.751673 c 0,0 -55.56492,3.368977 -55.82845,3.391359 -6.26468,0.53055 -11.98254,-2.395997 -12.88158,-6.746653 -0.43559,-2.107451 0.32536,-4.207619 2.14271,-5.913696 1.80518,-1.694879 4.43821,-2.799156 7.41914,-3.113118 l 13.26269,-0.8276293 c 1.25455,-0.078178 2.18097,-0.8548102 2.06948,-1.7345009 -0.11175,-0.8798692 -1.21833,-1.5294609 -2.4739,-1.4509324 l -13.32806,0.8317209 c -0.0418,0.00264 -0.0834,0.00595 -0.12492,0.010114 -4.21117,0.4278546 -7.93279,1.980061 -10.4789,4.3705527 -2.54636,2.390498 -3.61264,5.333398 -3.00246,8.286069 1.06197,5.139549 6.98532,8.95752 14.02717,9.50051 -0.58255,0.791736 -1.15498,1.748541 -1.59436,2.862587 -1.20363,3.050402 -1.63009,7.927515 2.86437,14.131363 l -7.32564,6.976924 c -0.37351,0.355712 -0.52048,0.80382 -0.40594,1.238073 l 3.17732,12.079515 c 0.19942,0.758507 1.14281,1.309138 2.2428,1.309138 h 3.2361 c 0.65806,0 1.28395,-0.199355 1.71701,-0.546896 0.43305,-0.347541 0.63095,-0.809147 0.54302,-1.266318 l -1.73019,-8.977594 21.08702,-10.241963 c 0.0583,-0.02829 -0.0545,0.03199 0,0 1.91743,-1.12933 3.45148,-2.454101 4.57707,-3.949625 11.772212,1.449676 26.800298,3.277287 36.44476,4.364325 l 4.320637,19.267534 c 0.174589,0.777703 1.13014,1.350716 2.252933,1.350716 h 2.66242 c 1.259625,0 2.280551,-0.715872 2.280551,-1.599112 V 46.823123 c 2.575253,-0.868671 3.909883,-3.198581 3.910137,-5.506273 V -4.433062 c -2.61e-4,-0.6906407 -0.632472,-1.3030967 -1.567752,-1.5189839 z"
     id="path1653"
     style="stroke-width:0.212186" /><g
     id="g1781"
     transform="matrix(0.20922927,0,0,0.16315158,211.63811,-8.3857876)">
	<path
   d="m 434.562,76.253 c -1.656,-1.895 -4.029,-3.01 -6.544,-3.075 l -44.219,-1.146 c -6.147,-10.159 -17.319,-16.65 -29.45,-16.65 -1.294,0 -2.581,0.073 -3.86,0.218 L 339.435,32.374 c -1.537,-3.231 -4.839,-5.23 -8.42,-5.127 -3.577,0.117 -6.744,2.342 -8.068,5.666 l -6.016,15.11 -14.394,-19.498 c -2.308,-3.127 -6.362,-4.419 -10.054,-3.204 -3.692,1.215 -6.186,4.662 -6.186,8.549 v 150.995 c 0,0 -164.967,35.907 -165.607,36.219 -10.604,1.422 -21.143,-1.31 -29.727,-7.721 -8.706,-6.502 -14.357,-16.005 -15.915,-26.759 -1.558,-10.753 1.164,-21.469 7.665,-30.174 6.502,-8.705 16.004,-14.357 26.757,-15.915 4.92,-0.713 8.329,-5.278 7.616,-10.198 -0.713,-4.919 -5.275,-8.331 -10.197,-7.616 -15.512,2.248 -29.219,10.401 -38.598,22.959 -9.379,12.557 -13.306,28.015 -11.058,43.525 2.247,15.512 10.4,29.22 22.958,38.6 8.133,6.075 17.483,9.852 27.276,11.156 -1.827,3.778 -3.58,8.186 -4.968,13.204 -4.396,15.891 -5.973,41.246 10.281,73.465 l -26.406,35.866 c -1.712,2.325 -2.205,5.331 -1.324,8.081 l 11.565,36.104 c 1.194,3.727 4.658,6.255 8.571,6.255 h 11.777 c 0.006,0 0.012,0 0.02,0 4.971,0 9,-4.029 9,-9 0,-1.057 -0.182,-2.07 -0.516,-3.012 l -5.092,-18.279 75.044,-51.939 c 0.229,-0.159 0.452,-0.329 0.666,-0.509 7.26,-6.097 13.024,-13.28 17.194,-21.414 l 94.665,-1.674 15.443,98.224 c 0.688,4.378 4.46,7.603 8.891,7.603 h 9.691 c 4.971,0 9,-4.029 9,-9 V 302.724 c 11.568,-5.962 14.228,-18.303 14.23,-28.383 V 149.618 c 37.415,-0.701 67.39,-28.437 71.533,-66.468 0.273,-2.501 -0.514,-5.002 -2.17,-6.897 z"
   id="path1777" />
	<path
   d="m 59.414,388.566 h -0.837 c 1.479,-1.832 2.37,-4.159 2.37,-6.692 0,-5.886 -4.788,-10.675 -10.674,-10.675 h -0.696 c 1.479,-1.832 2.37,-4.159 2.37,-6.692 0,-5.887 -4.788,-10.676 -10.674,-10.676 H 28.816 c -5.886,0 -10.674,4.789 -10.674,10.676 0,2.533 0.891,4.86 2.37,6.692 h -0.696 c -5.886,0 -10.674,4.789 -10.674,10.675 0,2.533 0.891,4.86 2.37,6.692 H 10.675 C 4.789,388.566 0,393.355 0,399.242 c 0,5.886 4.789,10.675 10.676,10.675 h 48.738 c 5.886,0 10.674,-4.789 10.674,-10.675 0,-5.887 -4.788,-10.676 -10.674,-10.676 z"
   id="path1779" />
</g></g><path
   d="m 1182.5911,252.29451 c -0.5512,-0.12421 -1.1571,0.008 -1.502,0.32785 l -2.4526,2.27585 -1.05,-1.80639 c -0.1977,-0.34023 -0.6709,-0.56779 -1.2051,-0.57977 -0.5379,-0.013 -1.0284,0.19411 -1.2579,0.52471 l -1.8255,2.62743 c -0.2292,-0.0201 -0.4603,-0.0303 -0.6928,-0.0303 -1.9458,0 -3.7366,0.72107 -4.7051,1.8463 l -7.2251,0.12821 c -0.3756,0.006 -0.7301,0.12074 -0.9775,0.31464 -0.2472,0.19381 -0.3648,0.44982 -0.3242,0.70572 0.3256,2.04726 1.7203,3.9125 3.9269,5.2522 2.1494,1.30491 4.8815,2.03253 7.798,2.05432 v 2.73641 c 0,0 -32.7572,1.94013 -32.9126,1.95302 -3.6932,0.30554 -7.064,-1.37981 -7.594,-3.88528 -0.2568,-1.21364 0.1918,-2.42309 1.2631,-3.40559 1.0643,-0.97604 2.6165,-1.61198 4.3738,-1.79278 l 7.8188,-0.47662 c 0.7396,-0.0451 1.2857,-0.49227 1.22,-0.99887 -0.066,-0.5067 -0.7182,-0.88078 -1.4585,-0.83556 l -7.8572,0.47897 c -0.025,10e-4 -0.049,0.004 -0.074,0.006 -2.4826,0.24639 -4.6766,1.14028 -6.1776,2.51692 -1.5011,1.37665 -2.1298,3.07141 -1.77,4.7718 0.6261,2.95977 4.118,5.15847 8.2694,5.47117 -0.3434,0.45595 -0.6809,1.00695 -0.9399,1.64852 -0.7096,1.75667 -0.961,4.56531 1.6886,8.13799 l -4.3186,4.01789 c -0.2203,0.20484 -0.3069,0.4629 -0.2394,0.71298 l 1.8731,6.95637 c 0.1176,0.43681 0.6738,0.75391 1.3222,0.75391 h 1.9078 c 0.388,0 0.7569,-0.1148 1.0123,-0.31494 0.2553,-0.20015 0.3719,-0.46598 0.3201,-0.72926 l -1.02,-5.17003 12.4314,-5.89816 c 0.035,-0.0163 -0.032,0.0184 0,0 1.1303,-0.65036 2.0348,-1.41328 2.6983,-2.27452 6.9401,0.83484 15.7996,1.88733 21.4853,2.51334 l 2.5471,11.09583 c 0.103,0.44785 0.6663,0.77784 1.3282,0.77784 h 1.5696 c 0.7425,0 1.3444,-0.41226 1.3444,-0.9209 v -11.0948 c 1.5182,-0.50025 2.305,-1.842 2.3052,-3.17096 v -26.34654 c -2e-4,-0.39773 -0.3729,-0.75044 -0.9243,-0.87476 z"
   id="path1653-1"
   style="stroke-width:0.123633" /></svg>
