<?xml version="1.0" encoding="UTF-8" standalone="no"?>
<!-- Generator: Adobe Illustrator 27.5.0, SVG Export Plug-In . SVG Version: 6.00 Build 0)  -->

<svg
   version="1.1"
   x="0px"
   y="0px"
   viewBox="0 0 1032.9207 424.33852"
   xml:space="preserve"
   id="svg124"
   sodipodi:docname="yapayzeka-veri1.svg"
   width="1032.9207"
   height="424.33853"
   inkscape:version="1.2.2 (b0a8486541, 2022-12-01)"
   xmlns:inkscape="http://www.inkscape.org/namespaces/inkscape"
   xmlns:sodipodi="http://sodipodi.sourceforge.net/DTD/sodipodi-0.dtd"
   xmlns="http://www.w3.org/2000/svg"
   xmlns:svg="http://www.w3.org/2000/svg"><defs
   id="defs128" /><sodipodi:namedview
   id="namedview126"
   pagecolor="#ffffff"
   bordercolor="#000000"
   borderopacity="0.25"
   inkscape:showpageshadow="2"
   inkscape:pageopacity="0.0"
   inkscape:pagecheckerboard="0"
   inkscape:deskcolor="#d1d1d1"
   showgrid="false"
   inkscape:zoom="0.71417785"
   inkscape:cx="263.23975"
   inkscape:cy="319.24821"
   inkscape:window-width="1366"
   inkscape:window-height="667"
   inkscape:window-x="0"
   inkscape:window-y="0"
   inkscape:window-maximized="1"
   inkscape:current-layer="svg124"
   showguides="true" />


<text
   xml:space="preserve"
   style="font-style:normal;font-variant:normal;font-weight:normal;font-stretch:normal;font-size:26.6667px;font-family:'DejaVu Sans';-inkscape-font-specification:'DejaVu Sans, Normal';font-variant-ligatures:normal;font-variant-caps:normal;font-variant-numeric:normal;font-variant-east-asian:normal;text-align:center;text-anchor:middle;fill:#000000;stroke-width:2.8;paint-order:markers fill stroke"
   x="-338.53674"
   y="85.301041"
   id="text1039"><tspan
     sodipodi:role="line"
     id="tspan1037"
     x="-338.53674"
     y="85.301041" /></text><rect
   style="fill:#ff0000;stroke-width:2.18503;paint-order:markers fill stroke"
   id="rect1203-28"
   width="3.6620944"
   height="390"
   x="511.8653"
   y="34.338528" /><g
   id="g2415"
   transform="matrix(0.06794641,0,0,0.05758431,576.05402,175.34145)"><path
     d="M 910.3,851.7 H 173.6 c -27.4,0 -49.7,-22.3 -49.7,-49.7 V 305.5 c 0,-27.4 22.3,-49.7 49.7,-49.7 h 736.7 c 27.4,0 49.7,22.3 49.7,49.7 V 802 c 0,27.4 -22.3,49.7 -49.7,49.7 z"
     fill="#a7b8c6"
     id="path2229" /><path
     d="m 913.7,235.6 c 0,-27.4 -22.3,-49.7 -49.7,-49.7 H 127.3 c -27.4,0 -49.7,22.3 -49.7,49.7 v 326.8 h 836.1 z"
     fill="#e7e2d3"
     id="path2231" /><path
     d="M 127.3,781.7 H 864 c 27.4,0 49.7,-22.3 49.7,-49.7 V 481 H 77.5 v 251 c 0,27.4 22.3,49.7 49.8,49.7 z"
     fill="#4c4b4c"
     id="path2233" /><path
     d="M 864,795.3 H 127.3 C 92.4,795.3 64,766.9 64,732 V 235.6 c 0,-34.9 28.4,-63.3 63.3,-63.3 H 864 c 34.9,0 63.3,28.4 63.3,63.3 V 732 c -0.1,34.9 -28.4,63.3 -63.3,63.3 z M 127.3,199.4 c -19.9,0 -36.2,16.2 -36.2,36.2 V 732 c 0,19.9 16.2,36.2 36.2,36.2 H 864 c 19.9,0 36.2,-16.2 36.2,-36.2 V 235.6 c 0,-19.9 -16.2,-36.2 -36.2,-36.2 z"
     fill="#3e3a39"
     id="path2235" /><path
     d="m 495.6,459.9 m -187.6,0 a 187.6,187.6 0 1 0 375.2,0 187.6,187.6 0 1 0 -375.2,0 z"
     fill="#e7e2d3"
     id="path2237" /><path
     d="M 495.6,655.1 C 388,655.1 300.5,567.6 300.5,460 c 0,-107.6 87.5,-195.1 195.1,-195.1 107.6,0 195.1,87.5 195.1,195.1 0,107.5 -87.5,195.1 -195.1,195.1 z m 0,-375.2 c -99.3,0 -180.1,80.8 -180.1,180.1 0,99.3 80.8,180 180.1,180 99.3,0 180.1,-80.8 180.1,-180.1 0,-99.3 -80.8,-180 -180.1,-180 z"
     fill="#595757"
     id="path2239" /><path
     d="m 495.6,459.9 m -159,0 a 159,159 0 1 0 318,0 159,159 0 1 0 -318,0 z"
     fill="#666765"
     id="path2241" /><path
     d="m 495.6,459.9 m -97.8,0 a 97.8,97.8 0 1 0 195.6,0 97.8,97.8 0 1 0 -195.6,0 z"
     fill="#95d4eb"
     id="path2243" /><path
     d="m 495.6,563.7 c -57.2,0 -103.8,-46.6 -103.8,-103.8 0,-57.2 46.6,-103.8 103.8,-103.8 57.2,0 103.8,46.6 103.8,103.8 0,57.2 -46.6,103.8 -103.8,103.8 z m 0,-195.5 c -50.6,0 -91.7,41.2 -91.7,91.7 0,50.5 41.2,91.7 91.7,91.7 50.6,0 91.7,-41.2 91.7,-91.7 0,-50.5 -41.1,-91.7 -91.7,-91.7 z"
     fill="#595757"
     id="path2245" /><path
     d="m 539.1,419.9 m -26.7,0 a 26.7,26.7 0 1 0 53.4,0 26.7,26.7 0 1 0 -53.4,0 z"
     fill="#ffffff"
     id="path2247" /><path
     d="m 351.5,701 h 281.1 c 11.4,0 21.7,5.3 28.4,13.5 9,-3.4 15.5,-12.2 15.5,-22.4 0,-13.2 -10.8,-24 -24,-24 H 334.6 c -13.2,0 -24,10.8 -24,24 0,9.4 5.5,17.5 13.3,21.5 6.8,-7.7 16.6,-12.6 27.6,-12.6 z"
     fill="#1a1a1a"
     id="path2249" /><path
     d="m 669.1,737.2 c 0,-8.6 -3,-16.4 -8.1,-22.6 -2.6,1 -5.5,1.6 -8.5,1.6 H 334.6 c -3.8,0 -7.4,-0.9 -10.6,-2.5 -5.5,6.3 -8.9,14.6 -8.9,23.6 L 301,800.6 c 0,19.9 17.7,36.2 39.4,36.2 h 303.5 c 21.7,0 39.4,-16.3 39.4,-36.2 z"
     fill="#e7e2d3"
     id="path2251" /><path
     d="m 652.5,716.1 c 3,0 5.8,-0.6 8.5,-1.6 C 654.3,706.3 644.1,701 632.6,701 H 351.5 c -11,0 -20.8,4.9 -27.5,12.6 3.2,1.6 6.8,2.5 10.6,2.5 z"
     fill="#717071"
     id="path2253" /><path
     d="m 792.4,413.5 m -33,0 a 33,33 0 1 0 66,0 33,33 0 1 0 -66,0 z"
     fill="#717071"
     id="path2255" /><path
     d="m 792.4,449.4 c -19.8,0 -36,-16.1 -36,-36 0,-19.8 16.1,-36 36,-36 19.8,0 36,16.1 36,36 0,19.9 -16.1,36 -36,36 z m 0,-65.9 c -16.5,0 -30,13.4 -30,30 0,16.5 13.4,30 30,30 16.6,0 30,-13.4 30,-30 0,-16.6 -13.5,-30 -30,-30 z"
     fill="#595757"
     id="path2257" /><path
     d="m 800.19389,406.23356 a 12.400003,9.3000021 55.105 1 0 15.25576,-10.64058 12.400003,9.3000021 55.105 1 0 -15.25576,10.64058 z"
     fill="#b4b4b5"
     id="path2259" /><path
     d="m 173.4,413.5 m -33.1,0 a 33.1,33.1 0 1 0 66.2,0 33.1,33.1 0 1 0 -66.2,0 z"
     fill="#da8080"
     id="path2261" /><path
     d="m 173.4,451.1 c -20.8,0 -37.7,-16.9 -37.7,-37.7 0,-20.8 16.9,-37.7 37.7,-37.7 20.8,0 37.7,16.9 37.7,37.7 0,20.8 -16.9,37.7 -37.7,37.7 z m 0,-66.3 c -15.8,0 -28.6,12.8 -28.6,28.6 0,15.8 12.8,28.6 28.6,28.6 15.8,0 28.6,-12.8 28.6,-28.6 0,-15.8 -12.8,-28.6 -28.6,-28.6 z"
     fill="#ffffff"
     id="path2263" /><path
     d="m 212.6,336.3 h -78.4 c -2,0 -3.6,-1.6 -3.6,-3.6 V 285 c 0,-2 1.6,-3.6 3.6,-3.6 h 78.4 c 2,0 3.6,1.6 3.6,3.6 v 47.7 c 0,2 -1.6,3.6 -3.6,3.6 z"
     fill="#4c4b4c"
     id="path2265" /><path
     d="m 822.5,336.3 h -52.4 c -1.7,0 -3,-1.4 -3,-3 v -52.4 c 0,-1.7 1.4,-3 3,-3 h 52.4 c 1.7,0 3,1.4 3,3 v 52.4 c 0,1.6 -1.3,3 -3,3 z"
     fill="#656767"
     id="path2267" /><path
     d="m 816.4,339.3 h -40.2 c -6.7,0 -12.1,-5.4 -12.1,-12.1 V 287 c 0,-6.7 5.4,-12.1 12.1,-12.1 h 40.2 c 6.7,0 12.1,5.4 12.1,12.1 v 40.2 c 0.1,6.7 -5.4,12.1 -12.1,12.1 z m -40.2,-58.4 c -3.4,0 -6.1,2.7 -6.1,6.1 v 40.2 c 0,3.4 2.7,6.1 6.1,6.1 h 40.2 c 3.4,0 6.1,-2.7 6.1,-6.1 V 287 c 0,-3.4 -2.7,-6.1 -6.1,-6.1 z"
     fill="#3e3a39"
     id="path2269" /></g><g
   id="g3045"
   transform="matrix(2.0340681,0,0,1.3863142,547.59832,76.347694)"><polygon
     points="32,7 28,7 28,3 14,3 14,9 7,9 7,17 3,17 3,47 7,47 7,55 14,55 14,61 28,61 28,57 32,57 "
     style="fill:#e5e6eb"
     id="polygon2875" /><polygon
     points="32,7 36,7 36,3 50,3 50,9 57,9 57,17 61,17 61,47 57,47 57,55 50,55 50,61 36,61 36,57 32,57 "
     style="fill:#d9dae2"
     id="polygon2877" /><path
     d="M 25,13 H 23 V 7 a 1,1 0 0 1 1,-1 h 4 v 2 h -3 z"
     style="fill:#ffffff"
     id="path2879" /><path
     d="m 29,57 h -2 v -5 h -4 a 1,1 0 0 1 -1,-1 v -4 h 2 v 3 h 4 a 1,1 0 0 1 1,1 z"
     style="fill:#ffffff"
     id="path2881" /><path
     d="m 18,56 h -4 v -2 h 3 V 43 a 1,1 0 0 1 1,-1 h 6 v 2 h -5 v 11 a 1,1 0 0 1 -1,1 z"
     style="fill:#ffffff"
     id="path2883" /><path
     d="M 12,48 H 7 v -2 h 4 V 39 H 9 v 2 H 7 v -3 a 1,1 0 0 1 1,-1 h 4 a 1,1 0 0 1 1,1 v 9 a 1,1 0 0 1 -1,1 z"
     style="fill:#ffffff"
     id="path2885" /><path
     d="M 24,24 H 18 A 1,1 0 0 1 17,23 V 18 H 14 A 1,1 0 0 1 13,17 V 9 h 2 v 7 h 3 a 1,1 0 0 1 1,1 v 5 h 5 z"
     style="fill:#ffffff"
     id="path2887" /><path
     d="M 12,28 H 7 A 1,1 0 0 1 6,27 V 17 h 2 v 9 h 4 z"
     style="fill:#ffffff"
     id="path2889" /><path
     d="M 41,13 H 39 V 8 H 36 V 6 h 4 a 1,1 0 0 1 1,1 z"
     style="fill:#ffffff"
     id="path2891" /><path
     d="m 37,57 h -2 v -6 a 1,1 0 0 1 1,-1 h 4 v -3 h 2 v 4 a 1,1 0 0 1 -1,1 h -4 z"
     style="fill:#ffffff"
     id="path2893" /><path
     d="M 50,56 H 46 A 1,1 0 0 1 45,55 V 44 h -5 v -2 h 6 a 1,1 0 0 1 1,1 v 11 h 3 z"
     style="fill:#ffffff"
     id="path2895" /><path
     d="m 57,48 h -5 a 1,1 0 0 1 -1,-1 v -9 a 1,1 0 0 1 1,-1 h 4 a 1,1 0 0 1 1,1 v 3 h -2 v -2 h -2 v 7 h 4 z"
     style="fill:#ffffff"
     id="path2897" /><path
     d="m 46,24 h -6 v -2 h 5 v -5 a 1,1 0 0 1 1,-1 h 3 V 9 h 2 v 8 a 1,1 0 0 1 -1,1 h -3 v 5 a 1,1 0 0 1 -1,1 z"
     style="fill:#ffffff"
     id="path2899" /><path
     d="m 57,28 h -5 v -2 h 4 v -9 h 2 v 10 a 1,1 0 0 1 -1,1 z"
     style="fill:#ffffff"
     id="path2901" /><path
     d="M 61,16 H 58 V 9 A 1,1 0 0 0 57,8 H 51 V 3 A 1,1 0 0 0 50,2 H 36 A 1,1 0 0 0 35,3 V 6 H 29 V 3 A 1,1 0 0 0 28,2 H 14 A 1,1 0 0 0 13,3 V 8 H 7 A 1,1 0 0 0 6,9 v 7 H 3 a 1,1 0 0 0 -1,1 v 30 a 1,1 0 0 0 1,1 h 3 v 7 a 1,1 0 0 0 1,1 h 6 v 5 a 1,1 0 0 0 1,1 h 14 a 1,1 0 0 0 1,-1 v -3 h 6 v 3 a 1,1 0 0 0 1,1 h 14 a 1,1 0 0 0 1,-1 v -5 h 6 a 1,1 0 0 0 1,-1 v -7 h 3 a 1,1 0 0 0 1,-1 V 17 a 1,1 0 0 0 -1,-1 z m -1,30 h -7 v -7 h 2 v 2 h 2 v -3 a 1,1 0 0 0 -1,-1 h -4 a 1,1 0 0 0 -1,1 v 9 a 1,1 0 0 0 1,1 h 4 v 6 H 47 V 43 a 1,1 0 0 0 -1,-1 h -6 v 2 h 5 v 11 a 1,1 0 0 0 1,1 h 3 v 4 H 37 v -8 h 4 a 1,1 0 0 0 1,-1 v -4 h -2 v 3 h -4 a 1,1 0 0 0 -1,1 v 5 H 33 V 40.212 H 31 V 56 h -2 v -5 a 1,1 0 0 0 -1,-1 h -4 v -3 h -2 v 4 a 1,1 0 0 0 1,1 h 4 v 8 H 15 v -4 h 3 a 1,1 0 0 0 1,-1 V 44 h 5 v -2 h -6 a 1,1 0 0 0 -1,1 V 54 H 8 v -6 h 4 a 1,1 0 0 0 1,-1 V 38 A 1,1 0 0 0 12,37 H 8 a 1,1 0 0 0 -1,1 v 3 h 2 v -2 h 2 v 7 H 4 V 18 h 2 v 9 a 1,1 0 0 0 1,1 h 5 V 26 H 8 V 10 h 5 v 7 a 1,1 0 0 0 1,1 h 3 v 5 a 1,1 0 0 0 1,1 h 6 V 22 H 19 V 17 A 1,1 0 0 0 18,16 H 15 V 4 h 12 v 2 h -3 a 1,1 0 0 0 -1,1 v 6 h 2 V 8 h 6 v 16 h 2 V 8 h 6 v 5 h 2 V 7 A 1,1 0 0 0 40,6 H 37 V 4 h 12 v 12 h -3 a 1,1 0 0 0 -1,1 v 5 h -5 v 2 h 6 a 1,1 0 0 0 1,-1 v -5 h 3 a 1,1 0 0 0 1,-1 v -7 h 5 v 16 h -4 v 2 h 5 a 1,1 0 0 0 1,-1 v -9 h 2 z"
     id="path2903" /><path
     d="m 38.8,33.848 2,-0.711 v -2.274 l -2,-0.711 -0.681,-1.652 0.912,-1.921 -1.607,-1.607 -1.921,0.912 -1.655,-0.684 -0.711,-2 h -2.274 l -0.711,2 -1.655,0.686 -1.921,-0.912 -1.607,1.607 0.912,1.921 -0.681,1.65 -2,0.711 v 2.274 l 2,0.711 0.686,1.655 -0.912,1.921 1.607,1.607 1.921,-0.912 1.655,0.685 0.711,2 h 2.274 l 0.711,-2 1.655,-0.685 1.921,0.912 1.607,-1.607 L 38.119,35.5 Z M 32,35 a 3,3 0 1 1 3,-3 3,3 0 0 1 -3,3 z"
     style="fill:#027de5"
     id="path2905" /></g><g
   id="g4071"
   transform="translate(-558.15,2.9383179)"><g
     id="g3450"
     transform="matrix(3.1840707,0,0,3.4416345,1280.0173,42.448912)"><rect
       height="40"
       rx="3.9200001"
       ry="3.9200001"
       style="fill:#d9dae2"
       width="58"
       x="3"
       y="5"
       id="rect3289" /><path
       d="M 58.662,5.338 A 3.905,3.905 0 0 1 59,6.92 V 39.08 A 3.92,3.92 0 0 1 55.08,43 H 4.92 A 3.905,3.905 0 0 1 3.338,42.662 3.918,3.918 0 0 0 6.92,45 H 57.08 A 3.92,3.92 0 0 0 61,41.08 V 8.92 A 3.918,3.918 0 0 0 58.662,5.338 Z"
       style="fill:#cfcfd9"
       id="path3291" /><path
       d="m 7,33 h 50 v 6.926 A 1.074,1.074 0 0 1 55.926,41 H 8.074 A 1.074,1.074 0 0 1 7,39.926 Z"
       style="fill:#e5e6eb"
       id="path3293" /><path
       d="m 56.037417,32.744722 v 4.926 a 1.074,1.074 0 0 1 -1.074,1.074 H 8.0374175 v 0.926 a 1.074,1.074 0 0 0 1.074,1.074 H 56.963417 a 1.074,1.074 0 0 0 1.074,-1.074 v -6.926 z"
       style="fill:#cfcfd9"
       id="path3295" /><path
       d="M 8.183,9 H 55.817 A 1.183,1.183 0 0 1 57,10.183 V 29 H 7 V 10.183 A 1.183,1.183 0 0 1 8.183,9 Z"
       style="fill:#027de5"
       id="path3297" /><path
       d="m 39,54 v -9 h -4 v 9 h -6 v -9 h -4 v 9 h -4 a 1,1 0 0 0 -1,1 v 3 a 1,1 0 0 0 1,1 h 22 a 1,1 0 0 0 1,-1 v -3 a 1,1 0 0 0 -1,-1 z"
       style="fill:#e5e6eb"
       id="path3299" /><path
       d="m 20,57 h 24 v 1.062 A 0.938,0.938 0 0 1 43.062,59 H 20.938 A 0.938,0.938 0 0 1 20,58.062 Z"
       style="fill:#cfcfd9"
       id="path3301" /><polygon
       points="25,45 29,54 29,45 "
       style="fill:#cfcfd9"
       id="polygon3303" /><polygon
       points="35,45 39,54 39,45 "
       style="fill:#cfcfd9"
       id="polygon3305" /><polygon
       points="18,12 10,20 10,12 "
       style="fill:#ffffff"
       id="polygon3307" /><polygon
       points="14,33 10,37 10,33 "
       style="fill:#ffffff"
       id="polygon3309" /><path
       d="M 57.08,4 H 6.92 A 4.925,4.925 0 0 0 2,8.92 V 41.08 A 4.925,4.925 0 0 0 6.92,46 H 24 v 7 h -4 a 1,1 0 0 0 -1,1 v 5 a 1,1 0 0 0 1,1 h 24 a 1,1 0 0 0 1,-1 V 54 A 1,1 0 0 0 44,53 H 40 V 46 H 57.08 A 4.925,4.925 0 0 0 62,41.08 V 8.92 A 4.925,4.925 0 0 0 57.08,4 Z M 39,55 h 4 v 3 H 21 v -3 h 4 a 1,1 0 0 0 1,-1 v -8 h 2 v 8 a 1,1 0 0 0 1,1 h 6 a 1,1 0 0 0 1,-1 v -8 h 2 v 8 a 1,1 0 0 0 1,1 z m -9,-9 h 4 v 7 H 30 Z M 60,41.08 A 2.923,2.923 0 0 1 57.08,44 H 6.92 A 2.923,2.923 0 0 1 4,41.08 V 8.92 A 2.923,2.923 0 0 1 6.92,6 H 57.08 A 2.923,2.923 0 0 1 60,8.92 Z"
       id="path3311" /><path
       d="M 57,32 H 7 a 1,1 0 0 0 -1,1 v 6.926 A 2.077,2.077 0 0 0 8.074,42 H 55.926 A 2.077,2.077 0 0 0 58,39.926 V 33 a 1,1 0 0 0 -1,-1 z m -1,7.926 A 0.074,0.074 0 0 1 55.926,40 H 8.074 A 0.074,0.074 0 0 1 8,39.926 V 34 h 48 z"
       id="path3313" /><rect
       style="fill:#008000;stroke-width:0.845832;paint-order:markers fill stroke"
       id="rect3895"
       width="45.359085"
       height="6.1654372"
       x="8.3071079"
       y="33.833603" /><text
       xml:space="preserve"
       style="font-weight:bold;font-size:8.05556px;font-family:sans-serif;-inkscape-font-specification:'sans-serif Bold';text-align:center;text-anchor:middle;fill:#ffffff;stroke-width:0.845832;paint-order:markers fill stroke"
       x="21.704887"
       y="41.073746"
       id="text4001"
       transform="scale(1.0396592,0.96185364)"><tspan
         sodipodi:role="line"
         id="tspan3999"
         style="fill:#ffffff;stroke-width:0.845832"
         x="21.704887"
         y="41.073746">%100</tspan></text></g><path
     d="m 1407.1108,87.945739 c -0.5512,-0.12421 -1.1571,0.008 -1.502,0.32785 l -2.4526,2.27585 -1.05,-1.80639 c -0.1977,-0.34023 -0.6709,-0.56779 -1.2051,-0.57977 -0.5379,-0.013 -1.0284,0.19411 -1.2579,0.52471 l -1.8255,2.62743 c -0.2292,-0.0201 -0.4603,-0.0303 -0.6928,-0.0303 -1.9458,0 -3.7366,0.72107 -4.7051,1.8463 l -7.2251,0.12821 c -0.3756,0.006 -0.7301,0.12074 -0.9775,0.31464 -0.2472,0.19381 -0.3648,0.44982 -0.3242,0.70572 0.3256,2.04726 1.7203,3.9125 3.9269,5.2522 2.1494,1.304911 4.8815,2.032531 7.798,2.054321 v 2.73641 c 0,0 -32.7572,1.94013 -32.9126,1.95302 -3.6932,0.30554 -7.064,-1.37981 -7.594,-3.88528 -0.2568,-1.21364 0.1918,-2.423091 1.2631,-3.405591 1.0643,-0.97604 2.6165,-1.61198 4.3738,-1.79278 l 7.8188,-0.47662 c 0.7396,-0.0451 1.2857,-0.49227 1.22,-0.99887 -0.066,-0.5067 -0.7182,-0.88078 -1.4585,-0.83556 l -7.8572,0.47897 c -0.025,0.001 -0.049,0.004 -0.074,0.006 -2.4826,0.24639 -4.6766,1.14028 -6.1776,2.51692 -1.5011,1.37665 -2.1298,3.071411 -1.77,4.771801 0.6261,2.95977 4.118,5.15847 8.2694,5.47117 -0.3434,0.45595 -0.6809,1.00695 -0.9399,1.64852 -0.7096,1.75667 -0.961,4.56531 1.6886,8.13799 l -4.3186,4.01789 c -0.2203,0.20484 -0.3069,0.4629 -0.2394,0.71298 l 1.8731,6.95637 c 0.1176,0.43681 0.6738,0.75391 1.3222,0.75391 h 1.9078 c 0.388,0 0.7569,-0.1148 1.0123,-0.31494 0.2553,-0.20015 0.3719,-0.46598 0.3201,-0.72926 l -1.02,-5.17003 12.4314,-5.89816 c 0.035,-0.0163 -0.032,0.0184 0,0 1.1303,-0.65036 2.0348,-1.41328 2.6983,-2.27452 6.9401,0.83484 15.7996,1.88733 21.4853,2.51334 l 2.5471,11.09583 c 0.103,0.44785 0.6663,0.77784 1.3282,0.77784 h 1.5696 c 0.7425,0 1.3444,-0.41226 1.3444,-0.9209 v -11.0948 c 1.5182,-0.50025 2.305,-1.842 2.3052,-3.17096 V 88.820659 c -2e-4,-0.39773 -0.3729,-0.75044 -0.9243,-0.87476 z"
     id="path1653-1-7"
     style="stroke-width:0.123633" /></g><rect
   style="fill:#000000;stroke-width:2.12811;paint-order:markers fill stroke"
   id="rect4301"
   width="102.96204"
   height="4.4351797"
   x="436.29544"
   y="129.89119"
   transform="matrix(0.9998191,-0.01902041,0.02714113,0.99963161,0,0)" /><rect
   style="fill:#000000;stroke-width:1.45945;paint-order:markers fill stroke"
   id="rect4301-2"
   width="48.438557"
   height="4.433907"
   x="675.84521"
   y="147.52483"
   transform="matrix(0.99918237,-0.0404302,0.0127641,0.99991854,0,0)" /><rect
   style="fill:#000000;stroke-width:2.13048;paint-order:markers fill stroke"
   id="rect4355"
   width="7.0010571"
   height="30.804653"
   x="-616.77716"
   y="226.42575"
   transform="scale(-1,1)" /><rect
   style="fill:#000000;stroke-width:1.9799;paint-order:markers fill stroke"
   id="rect4355-0"
   width="7.0010571"
   height="26.604019"
   x="-617.32745"
   y="158.56244"
   transform="scale(-1,1)" /><rect
   style="fill:#ff0000;stroke-width:2.18502;paint-order:markers fill stroke"
   id="rect1203-9"
   width="3.6620944"
   height="390"
   x="714.47247"
   y="34.338528" /><rect
   style="fill:#000000;stroke-width:2.26876;paint-order:markers fill stroke"
   id="rect4567"
   width="1032.9207"
   height="6.6951456"
   x="0"
   y="308.45352" /><text
   xml:space="preserve"
   style="font-style:normal;font-variant:normal;font-weight:normal;font-stretch:normal;font-size:26.6667px;font-family:'DejaVu Sans';-inkscape-font-specification:'DejaVu Sans, Normal';font-variant-ligatures:normal;font-variant-caps:normal;font-variant-numeric:normal;font-variant-east-asian:normal;text-align:center;text-anchor:middle;white-space:pre;inline-size:173.602;display:inline;fill:#ff0000;stroke-width:2.8;paint-order:markers fill stroke"
   x="882.77631"
   y="457.60687"
   id="text4581"
   transform="translate(-639.1236,-53.257883)"><tspan
     x="882.77631"
     y="457.60687"
     id="tspan577">Öğrenme</tspan></text><text
   xml:space="preserve"
   style="font-style:normal;font-variant:normal;font-weight:normal;font-stretch:normal;font-size:26.6667px;font-family:'DejaVu Sans';-inkscape-font-specification:'DejaVu Sans, Normal';font-variant-ligatures:normal;font-variant-caps:normal;font-variant-numeric:normal;font-variant-east-asian:normal;text-align:center;text-anchor:middle;fill:#ff0000;stroke-width:2.8;paint-order:markers fill stroke"
   x="612.61078"
   y="399.44012"
   id="text4585"><tspan
     sodipodi:role="line"
     x="612.61078"
     y="399.44012"
     id="tspan4591">Karar Verme</tspan></text><text
   xml:space="preserve"
   style="font-style:normal;font-variant:normal;font-weight:normal;font-stretch:normal;font-size:26.6667px;font-family:'DejaVu Sans';-inkscape-font-specification:'DejaVu Sans, Normal';font-variant-ligatures:normal;font-variant-caps:normal;font-variant-numeric:normal;font-variant-east-asian:normal;text-align:center;text-anchor:middle;fill:#ff0000;stroke-width:2.8;paint-order:markers fill stroke"
   x="849.32709"
   y="404.349"
   id="text4589"><tspan
     sodipodi:role="line"
     id="tspan4587"
     x="849.32709"
     y="404.349">Tahmin Üretme</tspan></text><text
   xml:space="preserve"
   style="font-style:normal;font-variant:normal;font-weight:normal;font-stretch:normal;font-size:26.6667px;font-family:'DejaVu Sans';-inkscape-font-specification:'DejaVu Sans, Normal';font-variant-ligatures:normal;font-variant-caps:normal;font-variant-numeric:normal;font-variant-east-asian:normal;text-align:center;text-anchor:middle;fill:#ff0000;stroke-width:2.8;paint-order:markers fill stroke"
   x="491.65741"
   y="24.348989"
   id="text4595"><tspan
     sodipodi:role="line"
     id="tspan4593"
     x="491.65741"
     y="24.348989">Yapay Zekada Örnek Verilerle Nesne Tespiti</tspan></text><g
   id="g2093"
   transform="matrix(0.9008362,0,0,0.80380557,166.15218,102.81216)"><g
     id="g1405"
     transform="matrix(0.23317531,0,0,0.18649176,-32.127309,-14.063819)">
	<path
   d="m 422.48,339.224 1,-5.229 c 0.468,-2.447 -0.099,-4.979 -1.567,-6.992 -1.467,-2.013 -3.703,-3.328 -6.176,-3.632 l -54.965,-6.75 -21.309,-28.007 c 0.849,-1.475 4.553,-7.711 4.553,-7.711 13.045,11.556 29.114,17.462 45.494,17.462 15.906,0 32.106,-5.571 46.108,-16.944 1.953,-1.586 3.153,-3.918 3.309,-6.429 0.155,-2.511 -0.747,-4.973 -2.489,-6.788 L 407.164,237.7 c 2.972,-12.551 -1.642,-25.747 -11.622,-33.741 l 8.061,-23.088 c 1.18,-3.378 0.246,-7.135 -2.379,-9.567 -2.624,-2.432 -6.44,-3.079 -9.721,-1.647 l -13.729,5.997 3.253,-22.402 c 0.566,-3.9 -1.47,-7.714 -5.025,-9.414 -3.556,-1.699 -7.802,-0.888 -10.481,2.002 L 294.845,222.078 42.836,130.263 C 23.247,123.098 13.14,101.332 20.305,81.744 23.776,72.255 30.735,64.685 39.899,60.43 c 9.165,-4.256 19.437,-4.688 28.926,-1.217 4.668,1.709 9.836,-0.693 11.544,-5.36 1.708,-4.668 -0.692,-9.836 -5.36,-11.544 C 61.006,37.186 45.844,37.825 32.319,44.105 18.793,50.384 8.523,61.556 3.401,75.56 c -10.575,28.911 4.342,61.033 33.252,71.607 l 12.743,4.661 c -0.192,0.494 0.195,-0.505 0,0 -3.856,6.74 -9.415,18.695 -12.141,31.414 -4.255,19.859 -3.679,48.905 21.782,76.93 l -27.321,66.89 c -0.798,1.954 -0.884,4.126 -0.243,6.137 l 21.207,66.505 c 1.202,3.769 4.699,6.266 8.568,6.266 0.377,0 0.758,-0.023 1.14,-0.072 l 12.793,-1.625 c 2.648,-0.336 5.01,-1.83 6.448,-4.079 1.438,-2.248 1.804,-5.02 0.999,-7.564 l -15.102,-47.738 57.207,-51.315 53.734,30.76 c 0.107,0.062 -0.11,-0.057 0,0 22.221,11.604 45.66,17.916 67.785,17.916 7.715,0 15.197,-0.732 22.391,-2.154 l 42.466,48.756 c 1.503,1.726 3.607,2.814 5.885,3.043 l 71.603,7.213 c 0.306,0.031 0.609,0.046 0.91,0.046 4.27,0 8.014,-3.033 8.831,-7.31 l 1,-5.229 c 0.468,-2.447 -0.099,-4.979 -1.567,-6.992 -1.467,-2.013 -3.703,-3.328 -6.176,-3.632 l -53.875,-6.616 -24.307,-50.016 c 1.396,-1.123 2.766,-2.284 4.107,-3.483 l 17.727,20.352 c 1.503,1.726 3.607,2.814 5.885,3.044 l 71.604,7.213 c 0.306,0.031 0.609,0.046 0.91,0.046 4.273,0.001 8.016,-3.032 8.834,-7.31 z"
   id="path1401" />
	<path
   d="m 430.238,357.555 c -8.057,0 -14.612,6.555 -14.612,14.612 0,8.057 6.555,14.612 14.612,14.612 8.057,0 14.612,-6.555 14.612,-14.612 10e-4,-8.057 -6.554,-14.612 -14.612,-14.612 z"
   id="path1403" />
</g><path
     d="m 192.6045,8.5616426 c -0.18316,-0.4862301 -0.56105,-0.8735195 -1.04247,-1.0678922 l -8.08714,-3.2672957 c -0.50247,-2.6162318 -2.48676,-4.71152898 -5.04036,-5.3720927 l -0.43625,-5.0323144 c -0.0637,-0.7363726 -0.55734,-1.3649221 -1.25679,-1.6010165 -0.69987,-0.2360943 -1.47234,-0.034483 -1.968,0.5130853 l -2.07547,2.2925612 -1.28278,-4.4958894 c -0.22112,-0.7749952 -0.91604,-1.3190612 -1.72048,-1.3471572 -0.80547,-0.02704 -1.53525,0.466406 -1.80979,1.2244609 l -9.58506,26.4796001 -35.47433,1.658437 c -0.0149,5.97e-4 -0.0299,0.0013 -0.0445,0.002 -7.28207,0.437894 -14.1776,-3.46311 -17.5672,-9.9392486 -0.47607,-0.9094651 -1.59816,-1.2606078 -2.50595,-0.783676 -0.90819,0.4767305 -1.25844,1.6001913 -0.78258,2.5094486 3.01192,5.75484 8.33178,9.814902 14.43874,11.320071 -0.21679,0.191682 -0.43481,0.393696 -0.65345,0.609543 -2.3298,2.301444 -5.1107,6.507743 -5.51478,13.651879 l -8.03722,3.534995 c -0.46947,0.206347 -0.8327,0.598185 -1.0037,1.082141 L 96.943571,52.45753 c -0.298471,0.845436 0.04809,1.783608 0.824043,2.231008 l 2.02225,1.165592 c 0.285066,0.164418 0.604776,0.247868 0.926346,0.247868 0.21658,0 0.43399,-0.03797 0.64191,-0.114639 0.51649,-0.190649 0.92202,-0.601077 1.10683,-1.120563 l 2.99068,-8.407225 7.21565,-0.597978 -2.19262,2.982248 c -0.30405,0.413527 -0.42368,0.934455 -0.33065,1.439282 l 2.2906,12.438158 c 0.16234,0.881785 0.93027,1.5219 1.82568,1.5219 h 2.3333 c 0.55052,0 1.0728,-0.244769 1.42551,-0.668004 0.35272,-0.423436 0.49958,-0.981758 0.40099,-1.523966 l -1.59631,-8.780265 15.49235,-10.734693 c 0.0479,-0.03307 -0.0445,0.03737 0,0 1.46739,-1.234168 2.53256,-2.593509 3.29451,-3.99127 7.80084,1.371322 18.6992,3.320999 25.72695,4.461185 0.0938,0.0432 -0.10149,-0.02724 0,0 l 14.56229,19.937776 c 0.35994,0.492845 0.92305,0.761779 1.49936,0.761779 0.28754,0 0.57838,-0.06695 0.84879,-0.206348 l 1.70666,-0.880134 c 0.4377,-0.225763 0.76793,-0.61636 0.91809,-1.085859 0.15017,-0.469505 0.10788,-0.979699 -0.11756,-1.418008 l -7.55023,-14.682383 7.73896,1.577053 -0.18647,2.68336 c -0.0473,0.682461 0.28342,1.336007 0.86117,1.701198 l 1.13881,0.719634 c 0.29991,0.189415 0.64397,0.286907 0.99091,0.286907 0.18997,0 0.38097,-0.02932 0.56579,-0.08841 0.52268,-0.167511 0.9445,-0.558108 1.15221,-1.066651 l 2.66023,-6.512285 c 0.19493,-0.47714 0.18317,-1.014189 -0.0324,-1.482245 -0.21555,-0.468258 -0.61571,-0.825599 -1.10456,-0.987126 L 173.01447,37.44755 c 0.0134,-0.06179 4.17011,-19.274113 4.17011,-19.274113 0.77598,0.129506 1.55959,0.197673 2.34897,0.197673 5.4366,0 10.41508,-3.187361 12.9924,-8.3182 0.23328,-0.4643393 0.26174,-1.0050982 0.0786,-1.491335 z"
     id="path1529"
     style="stroke-width:0.206412" /><path
     d="m -55.932454,-5.9520062 c -0.93503,-0.2156955 -1.962797,0.013683 -2.547885,0.5692851 l -4.160237,3.9519451 -1.781112,-3.1367495 c -0.335243,-0.5907813 -1.137998,-0.9859421 -2.044138,-1.006731 -0.912474,-0.022607 -1.744368,0.3370577 -2.133838,0.9111351 l -3.09648,4.56245112 c -0.388711,-0.0350337 -0.780712,-0.0526167 -1.174993,-0.0526167 -3.300723,0 -6.338421,1.25210598 -7.981179,3.20604368 l -12.255697,0.2226361 c -0.637288,0.011568 -1.238595,0.2096605 -1.658213,0.5463612 -0.419368,0.3365222 -0.618789,0.7810805 -0.549867,1.2254538 0.552402,3.5549996 2.918094,6.7939152 6.660989,9.1202682 3.6461,2.265943 8.280435,3.529425 13.227464,3.567268 v 4.751673 c 0,0 -55.56492,3.368977 -55.82845,3.391359 -6.26468,0.53055 -11.98254,-2.395997 -12.88158,-6.746653 -0.43559,-2.107451 0.32536,-4.207619 2.14271,-5.913696 1.80518,-1.694879 4.43821,-2.799156 7.41914,-3.113118 l 13.26269,-0.8276293 c 1.25455,-0.078178 2.18097,-0.8548102 2.06948,-1.7345009 -0.11175,-0.8798692 -1.21833,-1.5294609 -2.4739,-1.4509324 l -13.32806,0.8317209 c -0.0418,0.00264 -0.0834,0.00595 -0.12492,0.010114 -4.21117,0.4278546 -7.93279,1.980061 -10.4789,4.3705527 -2.54636,2.390498 -3.61264,5.333398 -3.00246,8.286069 1.06197,5.139549 6.98532,8.95752 14.02717,9.50051 -0.58255,0.791736 -1.15498,1.748541 -1.59436,2.862587 -1.20363,3.050402 -1.63009,7.927515 2.86437,14.131363 l -7.32564,6.976924 c -0.37351,0.355712 -0.52048,0.80382 -0.40594,1.238073 l 3.17732,12.079515 c 0.19942,0.758507 1.14281,1.309138 2.2428,1.309138 h 3.2361 c 0.65806,0 1.28395,-0.199355 1.71701,-0.546896 0.43305,-0.347541 0.63095,-0.809147 0.54302,-1.266318 l -1.73019,-8.977594 21.08702,-10.241963 c 0.0583,-0.02829 -0.0545,0.03199 0,0 1.91743,-1.12933 3.45148,-2.454101 4.57707,-3.949625 11.772212,1.449676 26.800298,3.277287 36.44476,4.364325 l 4.320637,19.267534 c 0.174589,0.777703 1.13014,1.350716 2.252933,1.350716 h 2.66242 c 1.259625,0 2.280551,-0.715872 2.280551,-1.599112 V 46.823123 c 2.575253,-0.868671 3.909883,-3.198581 3.910137,-5.506273 V -4.433062 c -2.61e-4,-0.6906407 -0.632472,-1.3030967 -1.567752,-1.5189839 z"
     id="path1653"
     style="stroke-width:0.212186" /><g
     id="g1781"
     transform="matrix(0.20922927,0,0,0.16315158,211.63811,-8.3857876)">
	<path
   d="m 434.562,76.253 c -1.656,-1.895 -4.029,-3.01 -6.544,-3.075 l -44.219,-1.146 c -6.147,-10.159 -17.319,-16.65 -29.45,-16.65 -1.294,0 -2.581,0.073 -3.86,0.218 L 339.435,32.374 c -1.537,-3.231 -4.839,-5.23 -8.42,-5.127 -3.577,0.117 -6.744,2.342 -8.068,5.666 l -6.016,15.11 -14.394,-19.498 c -2.308,-3.127 -6.362,-4.419 -10.054,-3.204 -3.692,1.215 -6.186,4.662 -6.186,8.549 v 150.995 c 0,0 -164.967,35.907 -165.607,36.219 -10.604,1.422 -21.143,-1.31 -29.727,-7.721 -8.706,-6.502 -14.357,-16.005 -15.915,-26.759 -1.558,-10.753 1.164,-21.469 7.665,-30.174 6.502,-8.705 16.004,-14.357 26.757,-15.915 4.92,-0.713 8.329,-5.278 7.616,-10.198 -0.713,-4.919 -5.275,-8.331 -10.197,-7.616 -15.512,2.248 -29.219,10.401 -38.598,22.959 -9.379,12.557 -13.306,28.015 -11.058,43.525 2.247,15.512 10.4,29.22 22.958,38.6 8.133,6.075 17.483,9.852 27.276,11.156 -1.827,3.778 -3.58,8.186 -4.968,13.204 -4.396,15.891 -5.973,41.246 10.281,73.465 l -26.406,35.866 c -1.712,2.325 -2.205,5.331 -1.324,8.081 l 11.565,36.104 c 1.194,3.727 4.658,6.255 8.571,6.255 h 11.777 c 0.006,0 0.012,0 0.02,0 4.971,0 9,-4.029 9,-9 0,-1.057 -0.182,-2.07 -0.516,-3.012 l -5.092,-18.279 75.044,-51.939 c 0.229,-0.159 0.452,-0.329 0.666,-0.509 7.26,-6.097 13.024,-13.28 17.194,-21.414 l 94.665,-1.674 15.443,98.224 c 0.688,4.378 4.46,7.603 8.891,7.603 h 9.691 c 4.971,0 9,-4.029 9,-9 V 302.724 c 11.568,-5.962 14.228,-18.303 14.23,-28.383 V 149.618 c 37.415,-0.701 67.39,-28.437 71.533,-66.468 0.273,-2.501 -0.514,-5.002 -2.17,-6.897 z"
   id="path1777" />
	<path
   d="m 59.414,388.566 h -0.837 c 1.479,-1.832 2.37,-4.159 2.37,-6.692 0,-5.886 -4.788,-10.675 -10.674,-10.675 h -0.696 c 1.479,-1.832 2.37,-4.159 2.37,-6.692 0,-5.887 -4.788,-10.676 -10.674,-10.676 H 28.816 c -5.886,0 -10.674,4.789 -10.674,10.676 0,2.533 0.891,4.86 2.37,6.692 h -0.696 c -5.886,0 -10.674,4.789 -10.674,10.675 0,2.533 0.891,4.86 2.37,6.692 H 10.675 C 4.789,388.566 0,393.355 0,399.242 c 0,5.886 4.789,10.675 10.676,10.675 h 48.738 c 5.886,0 10.674,-4.789 10.674,-10.675 0,-5.887 -4.788,-10.676 -10.674,-10.676 z"
   id="path1779" />
</g></g><path
   d="m 642.22812,249.54221 c -0.5512,-0.12421 -1.1571,0.008 -1.502,0.32785 l -2.4526,2.27585 -1.05,-1.80639 c -0.1977,-0.34023 -0.6709,-0.56779 -1.2051,-0.57977 -0.5379,-0.013 -1.0284,0.19411 -1.2579,0.52471 l -1.8255,2.62743 c -0.2292,-0.0201 -0.4603,-0.0303 -0.6928,-0.0303 -1.9458,0 -3.7366,0.72107 -4.7051,1.8463 l -7.2251,0.12821 c -0.3756,0.006 -0.7301,0.12074 -0.9775,0.31464 -0.2472,0.19381 -0.3648,0.44982 -0.3242,0.70572 0.3256,2.04726 1.7203,3.9125 3.9269,5.2522 2.1494,1.30491 4.8815,2.03253 7.798,2.05432 v 2.73641 c 0,0 -32.7572,1.94013 -32.9126,1.95302 -3.6932,0.30554 -7.064,-1.37981 -7.594,-3.88528 -0.2568,-1.21364 0.1918,-2.42309 1.2631,-3.40559 1.0643,-0.97604 2.6165,-1.61198 4.3738,-1.79278 l 7.8188,-0.47662 c 0.7396,-0.0451 1.2857,-0.49227 1.22,-0.99887 -0.066,-0.5067 -0.7182,-0.88078 -1.4585,-0.83556 l -7.8572,0.47897 c -0.025,10e-4 -0.049,0.004 -0.074,0.006 -2.4826,0.24639 -4.6766,1.14028 -6.1776,2.51692 -1.5011,1.37665 -2.1298,3.07141 -1.77,4.7718 0.6261,2.95977 4.118,5.15847 8.2694,5.47117 -0.3434,0.45595 -0.6809,1.00695 -0.9399,1.64852 -0.7096,1.75667 -0.961,4.56531 1.6886,8.13799 l -4.3186,4.01789 c -0.2203,0.20484 -0.3069,0.4629 -0.2394,0.71298 l 1.8731,6.95637 c 0.1176,0.43681 0.6738,0.75391 1.3222,0.75391 h 1.9078 c 0.388,0 0.7569,-0.1148 1.0123,-0.31494 0.2553,-0.20015 0.3719,-0.46598 0.3201,-0.72926 l -1.02,-5.17003 12.4314,-5.89816 c 0.035,-0.0163 -0.032,0.0184 0,0 1.1303,-0.65036 2.0348,-1.41328 2.6983,-2.27452 6.9401,0.83484 15.7996,1.88733 21.4853,2.51334 l 2.5471,11.09583 c 0.103,0.44785 0.6663,0.77784 1.3282,0.77784 h 1.5696 c 0.7425,0 1.3444,-0.41226 1.3444,-0.9209 v -11.0948 c 1.5182,-0.50025 2.305,-1.842 2.3052,-3.17096 v -26.34654 c -2e-4,-0.39773 -0.3729,-0.75044 -0.9243,-0.87476 z"
   id="path1653-1"
   style="stroke-width:0.123633" /></svg>
